<?xml version="1.0" encoding="utf-8"?>
<!-- Generator: Adobe Illustrator 21.1.0, SVG Export Plug-In . SVG Version: 6.00 Build 0)  -->
<svg version="1.1" id="Layer_1" xmlns="http://www.w3.org/2000/svg" xmlns:xlink="http://www.w3.org/1999/xlink" x="0px" y="0px"
	 viewBox="0 0 719 380.3" style="enable-background:new 0 0 719 380.3;" xml:space="preserve">
<style type="text/css">
	.st0{fill:#EFEFEF;}
	.st1{fill:none;stroke:#434343;stroke-linejoin:round;stroke-miterlimit:10;}
	.st2{fill:#434343;}
	.st3{fill-opacity:0;}
	.st4{fill:none;stroke:#999999;stroke-linejoin:round;stroke-miterlimit:10;stroke-dasharray:1,3;}
	.st5{fill:#434343;stroke:#434343;stroke-miterlimit:10;}
	.st6{fill:#00C6B7;fill-opacity:0.5962;}
	.st7{fill:#F7B64B;fill-opacity:0.5962;}
	.st8{fill:none;stroke:#F7B64B;stroke-linejoin:round;stroke-miterlimit:10;}
	.st9{fill:#00C6B7;fill-opacity:6.540000e-02;}
	.st10{fill:#00C6B7;fill-opacity:0.7115;}
	.st11{fill:#00C6B7;fill-opacity:0.15;}
	.st12{fill:#00C6B7;fill-opacity:0.1192;}
	.st13{fill:#00C6B7;fill-opacity:0.2115;}
	.st14{fill:#62B7ED;}
	.st15{fill:#62B7ED;fill-opacity:0.3808;}
	.st16{fill:#62B7ED;fill-opacity:0.65;}
</style>
<g>
	<g>
		<g>
			<path class="st0" d="M194.9,106.2L194.9,106.2c0-13.3,10.8-24.1,24.1-24.1l0,0c6.4,0,12.5,2.5,17.1,7.1
				c4.5,4.5,7.1,10.7,7.1,17.1l0,0c0,13.3-10.8,24.1-24.1,24.1l0,0C205.7,130.3,194.9,119.5,194.9,106.2z"/>
			<path class="st1" d="M194.9,106.2L194.9,106.2c0-13.3,10.8-24.1,24.1-24.1l0,0c6.4,0,12.5,2.5,17.1,7.1
				c4.5,4.5,7.1,10.7,7.1,17.1l0,0c0,13.3-10.8,24.1-24.1,24.1l0,0C205.7,130.3,194.9,119.5,194.9,106.2z"/>
			<path class="st2" d="M219.7,107.2v4h-1.1v-4H215v-1h3.7v-3.9h1.1v3.9h3.7v1H219.7z"/>
			<path class="st0" d="M482.5,106.2L482.5,106.2c0-13.3,10.8-24.1,24.1-24.1l0,0c6.4,0,12.5,2.5,17.1,7.1
				c4.5,4.5,7.1,10.7,7.1,17.1l0,0c0,13.3-10.8,24.1-24.1,24.1l0,0C493.3,130.3,482.5,119.5,482.5,106.2z"/>
			<path class="st1" d="M482.5,106.2L482.5,106.2c0-13.3,10.8-24.1,24.1-24.1l0,0c6.4,0,12.5,2.5,17.1,7.1
				c4.5,4.5,7.1,10.7,7.1,17.1l0,0c0,13.3-10.8,24.1-24.1,24.1l0,0C493.3,130.3,482.5,119.5,482.5,106.2z"/>
			<path class="st2" d="M507.3,107.2v4h-1.1v-4h-3.7v-1h3.7v-3.9h1.1v3.9h3.7v1H507.3z"/>
			<path class="st3" d="M441,1.8v340.3"/>
			<path class="st4" d="M441,1.8v340.3"/>
			<path class="st3" d="M4.9,341.7h660"/>
			<path class="st4" d="M4.9,341.7h660"/>
			<path class="st3" d="M163.7,350.2h105.6v43.1H163.7V350.2z"/>
			<path class="st2" d="M183,377.1v-12.7h9v2.4h-6.3v2.7h6.1v2.4h-6.1v2.9h6.3v2.4L183,377.1L183,377.1z M200,377.1v-5.5
				c0-1.1-0.6-1.7-1.7-1.7c-0.9,0-1.6,0.4-2.1,1.1v6.2h-2.4V368h2.4v1.2c0.3-0.4,0.7-0.7,1.2-1c0.6-0.3,1.2-0.5,2-0.5
				c1,0,1.8,0.3,2.2,0.8c0.5,0.5,0.7,1.2,0.7,2.1v6.5H200z M208.9,377.3c-1.4,0-2.6-0.5-3.5-1.4s-1.3-2.1-1.3-3.5s0.4-2.5,1.3-3.4
				c0.9-0.9,2.1-1.4,3.5-1.4c0.9,0,1.7,0.2,2.3,0.5c0.6,0.3,1,0.7,1.3,1.1l-1.6,1.5c-0.4-0.7-1.1-1-1.9-1c-0.7,0-1.3,0.2-1.8,0.7
				s-0.7,1.1-0.7,1.9s0.2,1.4,0.7,1.9s1.1,0.7,1.8,0.7c0.8,0,1.5-0.3,1.9-1l1.6,1.5c-0.3,0.4-0.8,0.8-1.3,1.2
				C210.6,377.2,209.8,377.3,208.9,377.3z M218.2,377.3c-1.4,0-2.6-0.5-3.5-1.4s-1.4-2.1-1.4-3.5s0.5-2.5,1.4-3.5s2.1-1.4,3.5-1.4
				s2.6,0.5,3.5,1.4s1.4,2.1,1.4,3.5s-0.5,2.6-1.4,3.5C220.7,376.9,219.6,377.3,218.2,377.3z M218.2,375.2c0.7,0,1.3-0.2,1.7-0.8
				s0.7-1.1,0.7-1.9s-0.2-1.4-0.7-1.9c-0.4-0.5-1-0.8-1.7-0.8s-1.2,0.2-1.7,0.7c-0.4,0.5-0.7,1.1-0.7,1.9s0.2,1.5,0.7,2
				C216.9,375,217.5,375.2,218.2,375.2z M230.9,377.1v-1.2c-0.8,0.9-1.7,1.4-2.8,1.4c-1.2,0-2.2-0.4-3-1.3c-0.7-0.9-1.1-2-1.1-3.5
				c0-1.4,0.4-2.6,1.1-3.5c0.8-0.9,1.7-1.3,3-1.3c1.2,0,2.1,0.5,2.8,1.4v-4.7h2.4v12.7H230.9z M228.8,375.2c0.4,0,0.8-0.1,1.2-0.3
				c0.4-0.2,0.7-0.4,0.9-0.8v-3.2c-0.2-0.3-0.5-0.6-0.9-0.8c-0.4-0.2-0.8-0.3-1.2-0.3c-0.7,0-1.2,0.2-1.7,0.8
				c-0.4,0.5-0.6,1.1-0.6,1.9s0.2,1.4,0.6,1.9C227.6,374.9,228.1,375.2,228.8,375.2z M239.9,377.3c-1.4,0-2.6-0.4-3.5-1.3
				s-1.4-2.1-1.4-3.5s0.5-2.5,1.4-3.4s2-1.4,3.4-1.4s2.5,0.5,3.3,1.4c0.9,0.9,1.3,2.1,1.3,3.7v0.5h-6.8c0.1,0.6,0.3,1.1,0.8,1.5
				c0.4,0.4,1.1,0.6,1.9,0.6c0.4,0,0.8-0.1,1.3-0.2c0.5-0.2,0.9-0.4,1.2-0.7l1.1,1.6c-0.5,0.4-1,0.7-1.7,1
				C241.3,377.2,240.6,377.3,239.9,377.3z M242,371.7c0-0.6-0.3-1.1-0.7-1.5c-0.4-0.4-0.9-0.6-1.6-0.6c-0.6,0-1.2,0.2-1.6,0.6
				s-0.6,0.9-0.7,1.5H242z M245.9,377.1v-9.2h2.4v1.2c0.3-0.4,0.8-0.8,1.3-1c0.5-0.3,1.1-0.4,1.6-0.4v2.4l-0.7-0.1
				c-0.4,0-0.9,0.1-1.3,0.3c-0.4,0.2-0.8,0.4-1,0.7v6.1H245.9z"/>
			<path class="st3" d="M501.9,350.2h95v43.1h-95V350.2z"/>
			<path class="st2" d="M514.8,377.1v-12.7h5c2,0,3.6,0.6,4.9,1.8c1.2,1.2,1.9,2.7,1.9,4.6s-0.6,3.4-1.9,4.6
				c-1.2,1.2-2.9,1.8-4.9,1.8L514.8,377.1L514.8,377.1z M519.8,374.7c1.2,0,2.1-0.4,2.9-1.1c0.7-0.7,1.1-1.7,1.1-2.8
				c0-1.2-0.4-2.2-1.1-2.9c-0.7-0.7-1.7-1.1-2.9-1.1h-2.3v7.9H519.8z M532.4,377.3c-1.4,0-2.6-0.4-3.5-1.3s-1.4-2.1-1.4-3.5
				s0.5-2.5,1.4-3.4s2-1.4,3.4-1.4s2.5,0.5,3.3,1.4c0.9,0.9,1.3,2.1,1.3,3.7v0.5h-6.8c0.1,0.6,0.3,1.1,0.8,1.5
				c0.4,0.4,1.1,0.6,1.9,0.6c0.4,0,0.8-0.1,1.3-0.2c0.5-0.2,0.9-0.4,1.2-0.7l1.1,1.6c-0.5,0.4-1,0.7-1.7,1
				C533.8,377.2,533.2,377.3,532.4,377.3z M534.5,371.7c0-0.6-0.3-1.1-0.7-1.5s-0.9-0.6-1.6-0.6s-1.2,0.2-1.6,0.6
				c-0.4,0.4-0.6,0.9-0.7,1.5H534.5z M542.7,377.3c-1.4,0-2.6-0.5-3.5-1.4s-1.3-2.1-1.3-3.5s0.4-2.5,1.3-3.4
				c0.9-0.9,2.1-1.4,3.5-1.4c0.9,0,1.7,0.2,2.3,0.5s1,0.7,1.3,1.1l-1.6,1.5c-0.4-0.7-1.1-1-1.9-1c-0.7,0-1.3,0.2-1.8,0.7
				s-0.7,1.1-0.7,1.9s0.2,1.4,0.7,1.9s1.1,0.7,1.8,0.7c0.8,0,1.5-0.3,1.9-1l1.6,1.5c-0.3,0.4-0.8,0.8-1.3,1.2
				C544.4,377.2,543.6,377.3,542.7,377.3z M552,377.3c-1.4,0-2.6-0.5-3.5-1.4s-1.4-2.1-1.4-3.5s0.5-2.5,1.4-3.5s2.1-1.4,3.5-1.4
				s2.6,0.5,3.5,1.4s1.4,2.1,1.4,3.5s-0.5,2.6-1.4,3.5C554.6,376.9,553.4,377.3,552,377.3z M552,375.2c0.7,0,1.3-0.2,1.7-0.8
				s0.7-1.1,0.7-1.9s-0.2-1.4-0.7-1.9c-0.4-0.5-1-0.8-1.7-0.8s-1.2,0.2-1.7,0.7c-0.4,0.5-0.7,1.1-0.7,1.9s0.2,1.5,0.7,2
				C550.8,375,551.3,375.2,552,375.2z M564.8,377.1v-1.2c-0.8,0.9-1.7,1.4-2.8,1.4c-1.2,0-2.2-0.4-3-1.3c-0.7-0.9-1.1-2-1.1-3.5
				c0-1.4,0.4-2.6,1.1-3.5c0.8-0.9,1.7-1.3,3-1.3c1.2,0,2.1,0.5,2.8,1.4v-4.7h2.4v12.7H564.8z M562.7,375.2c0.4,0,0.8-0.1,1.2-0.3
				c0.4-0.2,0.7-0.4,0.9-0.8v-3.2c-0.2-0.3-0.5-0.6-0.9-0.8c-0.4-0.2-0.8-0.3-1.2-0.3c-0.7,0-1.2,0.2-1.7,0.8
				c-0.4,0.5-0.6,1.1-0.6,1.9s0.2,1.4,0.6,1.9S562,375.2,562.7,375.2z M573.7,377.3c-1.4,0-2.6-0.4-3.5-1.3s-1.4-2.1-1.4-3.5
				s0.5-2.5,1.4-3.4s2-1.4,3.4-1.4s2.5,0.5,3.3,1.4c0.9,0.9,1.3,2.1,1.3,3.7v0.5h-6.8c0.1,0.6,0.3,1.1,0.8,1.5
				c0.4,0.4,1.1,0.6,1.9,0.6c0.4,0,0.8-0.1,1.3-0.2c0.5-0.2,0.9-0.4,1.2-0.7l1.1,1.6c-0.5,0.4-1,0.7-1.7,1
				C575.1,377.2,574.4,377.3,573.7,377.3z M575.8,371.7c0-0.6-0.3-1.1-0.7-1.5s-0.9-0.6-1.6-0.6c-0.6,0-1.2,0.2-1.6,0.6
				c-0.4,0.4-0.6,0.9-0.7,1.5H575.8z M579.7,377.1v-9.2h2.4v1.2c0.3-0.4,0.8-0.8,1.3-1c0.5-0.3,1.1-0.4,1.6-0.4v2.4l-0.7-0.1
				c-0.4,0-0.9,0.1-1.3,0.3c-0.4,0.2-0.8,0.4-1,0.7v6.1H579.7z"/>
			<path class="st3" d="M36.1,242.2h17.7"/>
			<path class="st1" d="M36.1,242.2h14.2"/>
			<path class="st5" d="M50.4,242.2l-1.1,1.1l3.1-1.1l-3.1-1.1L50.4,242.2z"/>
			<path class="st3" d="M91.9,242.2h17.7"/>
			<path class="st1" d="M91.9,242.2h14.2"/>
			<path class="st5" d="M106.2,242.2l-1.1,1.1l3.1-1.1l-3.1-1.1L106.2,242.2z"/>
			<path class="st3" d="M147.7,242.2h17.7"/>
			<path class="st1" d="M147.7,242.2H162"/>
			<path class="st5" d="M162,242.2l-1.1,1.1l3.1-1.1l-3.1-1.1L162,242.2z"/>
			<path class="st3" d="M203.5,242.2h17.7"/>
			<path class="st1" d="M203.5,242.2h14.2"/>
			<path class="st5" d="M217.8,242.2l-1.1,1.1l3.1-1.1l-3.1-1.1L217.8,242.2z"/>
			<path class="st3" d="M259.4,242.2H277"/>
			<path class="st1" d="M259.4,242.2h14.2"/>
			<path class="st5" d="M273.6,242.2l-1.1,1.1l3.1-1.1l-3.1-1.1L273.6,242.2z"/>
			<path class="st3" d="M315.2,242.2h17.7"/>
			<path class="st1" d="M315.2,242.2h14.2"/>
			<path class="st5" d="M329.4,242.2l-1.1,1.1l3.1-1.1l-3.1-1.1L329.4,242.2z"/>
			<path class="st3" d="M371,242.2h19"/>
			<path class="st1" d="M371,242.2h15.6"/>
			<path class="st5" d="M386.6,242.2l-1.1,1.1l3.1-1.1l-3.1-1.1L386.6,242.2z"/>
			<path class="st6" d="M395.6,239.3L395.6,239.3c0-3,2.5-5.5,5.5-5.5H423l0,0c1.5,0,2.9,0.6,3.9,1.6s1.6,2.4,1.6,3.9v21.9
				c0,3-2.5,5.5-5.5,5.5h-21.9c-3,0-5.5-2.5-5.5-5.5V239.3z"/>
			<path class="st1" d="M395.6,239.3L395.6,239.3c0-3,2.5-5.5,5.5-5.5H423l0,0c1.5,0,2.9,0.6,3.9,1.6s1.6,2.4,1.6,3.9v21.9
				c0,3-2.5,5.5-5.5,5.5h-21.9c-3,0-5.5-2.5-5.5-5.5V239.3z"/>
			<path class="st6" d="M338.5,239.3L338.5,239.3c0-3,2.5-5.5,5.5-5.5h21.9l0,0c1.5,0,2.9,0.6,3.9,1.6s1.6,2.4,1.6,3.9v21.9
				c0,3-2.5,5.5-5.5,5.5H344c-3,0-5.5-2.5-5.5-5.5V239.3z"/>
			<path class="st1" d="M338.5,239.3L338.5,239.3c0-3,2.5-5.5,5.5-5.5h21.9l0,0c1.5,0,2.9,0.6,3.9,1.6s1.6,2.4,1.6,3.9v21.9
				c0,3-2.5,5.5-5.5,5.5H344c-3,0-5.5-2.5-5.5-5.5V239.3z"/>
			<path class="st6" d="M282.6,239.3L282.6,239.3c0-3,2.5-5.5,5.5-5.5H310l0,0c1.5,0,2.9,0.6,3.9,1.6s1.6,2.4,1.6,3.9v21.9
				c0,3-2.5,5.5-5.5,5.5h-21.9c-3,0-5.5-2.5-5.5-5.5V239.3z"/>
			<path class="st1" d="M282.6,239.3L282.6,239.3c0-3,2.5-5.5,5.5-5.5H310l0,0c1.5,0,2.9,0.6,3.9,1.6s1.6,2.4,1.6,3.9v21.9
				c0,3-2.5,5.5-5.5,5.5h-21.9c-3,0-5.5-2.5-5.5-5.5V239.3z"/>
			<path class="st6" d="M226.8,239.3L226.8,239.3c0-3,2.5-5.5,5.5-5.5h21.9l0,0c1.5,0,2.9,0.6,3.9,1.6s1.6,2.4,1.6,3.9v21.9
				c0,3-2.5,5.5-5.5,5.5h-21.9c-3,0-5.5-2.5-5.5-5.5V239.3z"/>
			<path class="st1" d="M226.8,239.3L226.8,239.3c0-3,2.5-5.5,5.5-5.5h21.9l0,0c1.5,0,2.9,0.6,3.9,1.6s1.6,2.4,1.6,3.9v21.9
				c0,3-2.5,5.5-5.5,5.5h-21.9c-3,0-5.5-2.5-5.5-5.5V239.3z"/>
			<path class="st6" d="M171,239.3L171,239.3c0-3,2.5-5.5,5.5-5.5h21.9l0,0c1.5,0,2.9,0.6,3.9,1.6s1.6,2.4,1.6,3.9v21.9
				c0,3-2.5,5.5-5.5,5.5h-21.9c-3,0-5.5-2.5-5.5-5.5V239.3z"/>
			<path class="st1" d="M171,239.3L171,239.3c0-3,2.5-5.5,5.5-5.5h21.9l0,0c1.5,0,2.9,0.6,3.9,1.6s1.6,2.4,1.6,3.9v21.9
				c0,3-2.5,5.5-5.5,5.5h-21.9c-3,0-5.5-2.5-5.5-5.5V239.3z"/>
			<path class="st6" d="M115.2,239.3L115.2,239.3c0-3,2.5-5.5,5.5-5.5h21.9l0,0c1.5,0,2.9,0.6,3.9,1.6s1.6,2.4,1.6,3.9v21.9
				c0,3-2.5,5.5-5.5,5.5h-21.9c-3,0-5.5-2.5-5.5-5.5V239.3z"/>
			<path class="st1" d="M115.2,239.3L115.2,239.3c0-3,2.5-5.5,5.5-5.5h21.9l0,0c1.5,0,2.9,0.6,3.9,1.6s1.6,2.4,1.6,3.9v21.9
				c0,3-2.5,5.5-5.5,5.5h-21.9c-3,0-5.5-2.5-5.5-5.5V239.3z"/>
			<path class="st6" d="M59.4,239.3L59.4,239.3c0-3,2.5-5.5,5.5-5.5h21.9l0,0c1.5,0,2.9,0.6,3.9,1.6s1.6,2.4,1.6,3.9v21.9
				c0,3-2.5,5.5-5.5,5.5H64.9c-3,0-5.5-2.5-5.5-5.5V239.3z"/>
			<path class="st1" d="M59.4,239.3L59.4,239.3c0-3,2.5-5.5,5.5-5.5h21.9l0,0c1.5,0,2.9,0.6,3.9,1.6s1.6,2.4,1.6,3.9v21.9
				c0,3-2.5,5.5-5.5,5.5H64.9c-3,0-5.5-2.5-5.5-5.5V239.3z"/>
			<path class="st6" d="M3.6,239.3L3.6,239.3c0-3,2.5-5.5,5.5-5.5H31l0,0c1.5,0,2.9,0.6,3.9,1.6s1.6,2.4,1.6,3.9v21.9
				c0,3-2.5,5.5-5.5,5.5H9.1c-3,0-5.5-2.5-5.5-5.5V239.3z"/>
			<path class="st1" d="M3.6,239.3L3.6,239.3c0-3,2.5-5.5,5.5-5.5H31l0,0c1.5,0,2.9,0.6,3.9,1.6s1.6,2.4,1.6,3.9v21.9
				c0,3-2.5,5.5-5.5,5.5H9.1c-3,0-5.5-2.5-5.5-5.5V239.3z"/>
			<path class="st3" d="M-8.9,293.1h55.8v34.3H-8.9V293.1z"/>
			<path class="st2" d="M10.3,316.1v-8.8H7.1v-1.1h7.6v1.1h-3.2v8.9h-1.2V316.1z M21.1,316.1v-4.8c0-0.5-0.1-1-0.4-1.2
				c-0.2-0.3-0.7-0.4-1.2-0.4c-0.4,0-0.8,0.1-1.2,0.3c-0.4,0.2-0.7,0.5-1,0.8v5.3h-1.1v-10h1.1v3.8c0.3-0.4,0.7-0.7,1.2-0.9
				c0.5-0.2,0.9-0.3,1.4-0.3c1.5,0,2.3,0.8,2.3,2.3v5.1L21.1,316.1L21.1,316.1z M27.5,316.3c-1.1,0-2-0.4-2.7-1.1s-1-1.6-1-2.8
				c0-1.1,0.3-2,1-2.7s1.5-1.1,2.6-1.1c1,0,1.9,0.4,2.5,1.1s1,1.7,1,2.8v0.3H25c0,0.7,0.3,1.3,0.8,1.8s1.1,0.7,1.8,0.7
				c0.9,0,1.6-0.3,2.2-0.9l0.5,0.7C29.7,316,28.7,316.3,27.5,316.3z M29.8,312.1c0-0.7-0.2-1.2-0.7-1.7c-0.4-0.5-1-0.7-1.7-0.7
				s-1.2,0.2-1.7,0.7c-0.4,0.5-0.7,1-0.7,1.7H29.8z"/>
			<path class="st3" d="M43.8,293.1h62v34.3h-62V293.1z"/>
			<path class="st2" d="M58.8,316.3c-1.3,0-2.3-0.4-3-1.1s-1.1-1.7-1.1-3v-6.1h1.2v6.1c0,0.9,0.2,1.7,0.7,2.2s1.2,0.8,2.1,0.8
				s1.6-0.3,2.1-0.8s0.7-1.3,0.7-2.2v-6.1h1.2v6.1c0,1.3-0.3,2.3-1,3C61.1,316,60.1,316.3,58.8,316.3z M69.8,316.1v-4.7
				c0-0.6-0.2-1.1-0.5-1.3c-0.3-0.2-0.7-0.4-1.2-0.4c-0.4,0-0.8,0.1-1.2,0.3c-0.4,0.2-0.7,0.5-0.9,0.8v5.3h-1.1v-7.2H66v1.1
				c0.3-0.4,0.7-0.7,1.1-0.9c0.5-0.2,0.9-0.3,1.4-0.3c1.5,0,2.3,0.8,2.3,2.3v5.1L69.8,316.1L69.8,316.1z M73.6,307.9
				c-0.2,0-0.4-0.1-0.5-0.2s-0.2-0.3-0.2-0.5s0.1-0.4,0.2-0.5c0.1-0.2,0.3-0.2,0.5-0.2s0.4,0.1,0.5,0.2s0.2,0.3,0.2,0.5
				s-0.1,0.4-0.2,0.5C73.9,307.8,73.8,307.9,73.6,307.9z M73,316.1v-7.2h1.1v7.2H73z M78.1,316.3c-1.1,0-1.6-0.6-1.6-1.7v-4.7h-1.2
				v-1h1.2v-2h1.1v2h1.5v1h-1.5v4.5c0,0.3,0.1,0.5,0.2,0.7s0.3,0.2,0.6,0.2c0.3,0,0.6-0.1,0.8-0.3l0.3,0.8
				C79.2,316.2,78.7,316.3,78.1,316.3z M83.9,316.3c-1.1,0-2-0.4-2.7-1.1s-1-1.6-1-2.8c0-1.1,0.3-2,1-2.7s1.5-1.1,2.6-1.1
				c1,0,1.9,0.4,2.5,1.1s1,1.7,1,2.8v0.3h-5.9c0,0.7,0.3,1.3,0.8,1.8s1.1,0.7,1.8,0.7c0.9,0,1.6-0.3,2.2-0.9l0.5,0.7
				C86,316,85.1,316.3,83.9,316.3z M86.1,312.1c0-0.7-0.2-1.2-0.7-1.7c-0.4-0.5-1-0.7-1.7-0.7s-1.2,0.2-1.7,0.7
				c-0.4,0.5-0.7,1-0.7,1.7H86.1z M94.1,316.1V315c-0.3,0.4-0.6,0.7-1,0.9c-0.4,0.2-0.9,0.4-1.4,0.4c-1,0-1.8-0.3-2.4-1
				c-0.6-0.7-0.9-1.6-0.9-2.8c0-1.2,0.3-2.1,0.9-2.8s1.4-1,2.3-1c0.5,0,0.9,0.1,1.4,0.3c0.4,0.2,0.8,0.5,1.1,0.9v-3.8h1.1v10H94.1z
				 M91.9,315.3c0.4,0,0.9-0.1,1.3-0.3c0.4-0.2,0.7-0.5,0.9-0.8v-3.3c-0.2-0.3-0.5-0.6-0.9-0.8c-0.4-0.2-0.8-0.3-1.3-0.3
				c-0.7,0-1.3,0.3-1.7,0.8s-0.6,1.2-0.6,2s0.2,1.5,0.6,2C90.7,315.1,91.2,315.3,91.9,315.3z"/>
			<path class="st3" d="M99.7,293.1h62v34.3h-62V293.1z"/>
			<path class="st2" d="M115.1,316.3c-1.6,0-2.9-0.5-3.8-1.6l0.8-1c0.4,0.5,0.9,0.8,1.4,1.1c0.6,0.2,1.1,0.4,1.7,0.4
				c0.7,0,1.3-0.2,1.7-0.5s0.6-0.7,0.6-1.2c0-0.8-0.6-1.4-1.9-1.7c-1.5-0.4-2.4-0.7-2.8-0.9c-0.4-0.2-0.7-0.5-0.9-0.9
				c-0.2-0.3-0.3-0.8-0.3-1.2c0-0.8,0.3-1.5,1-2c0.6-0.5,1.5-0.8,2.5-0.8c1.5,0,2.7,0.5,3.6,1.4l-0.8,0.9c-0.7-0.8-1.7-1.2-2.9-1.2
				c-0.6,0-1.1,0.1-1.5,0.4s-0.6,0.7-0.6,1.2c0,0.3,0.2,0.6,0.5,0.9c0.3,0.2,0.8,0.4,1.4,0.6c1.4,0.4,2.3,0.7,2.8,1
				c0.4,0.2,0.7,0.6,1,0.9c0.2,0.4,0.3,0.8,0.3,1.3c0,0.9-0.3,1.7-1,2.2C117.1,316.1,116.2,316.3,115.1,316.3z M122.2,316.3
				c-1.1,0-1.6-0.6-1.6-1.7v-4.7h-1.2v-1h1.2v-2h1.1v2h1.5v1h-1.5v4.5c0,0.3,0.1,0.5,0.2,0.7c0.1,0.2,0.3,0.2,0.6,0.2
				s0.6-0.1,0.8-0.3l0.3,0.8C123.3,316.2,122.8,316.3,122.2,316.3z M129.2,316.1v-0.8c-0.6,0.7-1.4,1-2.4,1c-0.7,0-1.3-0.2-1.8-0.7
				s-0.7-1-0.7-1.7s0.2-1.3,0.7-1.7c0.5-0.4,1.1-0.7,1.8-0.7c1,0,1.8,0.3,2.4,1v-1.3c0-0.5-0.2-0.9-0.5-1.1
				c-0.3-0.3-0.8-0.4-1.3-0.4c-0.9,0-1.6,0.3-2.2,1l-0.5-0.8c0.8-0.8,1.7-1.2,2.9-1.2c0.9,0,1.6,0.2,2.1,0.6s0.7,1,0.7,1.8v5
				L129.2,316.1L129.2,316.1z M127.2,315.5c0.9,0,1.6-0.3,2-0.9v-1.3c-0.4-0.6-1.1-0.9-2-0.9c-0.5,0-1,0.2-1.3,0.5s-0.5,0.7-0.5,1.1
				c0,0.5,0.2,0.8,0.5,1.1C126.3,315.4,126.7,315.5,127.2,315.5z M134.2,316.3c-1.1,0-1.6-0.6-1.6-1.7v-4.7h-1.2v-1h1.2v-2h1.1v2
				h1.5v1h-1.5v4.5c0,0.3,0.1,0.5,0.2,0.7c0.1,0.2,0.3,0.2,0.6,0.2s0.6-0.1,0.8-0.3l0.3,0.8C135.3,316.2,134.8,316.3,134.2,316.3z
				 M140,316.3c-1.1,0-2-0.4-2.7-1.1s-1-1.6-1-2.8c0-1.1,0.3-2,1-2.7s1.5-1.1,2.6-1.1c1,0,1.9,0.4,2.5,1.1s1,1.7,1,2.8v0.3h-5.9
				c0,0.7,0.3,1.3,0.8,1.8s1.1,0.7,1.8,0.7c0.9,0,1.6-0.3,2.2-0.9l0.5,0.7C142.1,316,141.2,316.3,140,316.3z M142.2,312.1
				c0-0.7-0.2-1.2-0.7-1.7c-0.4-0.5-1-0.7-1.7-0.7s-1.2,0.2-1.7,0.7c-0.4,0.5-0.7,1-0.7,1.7H142.2z M147.3,316.3
				c-1.2,0-2.2-0.4-2.9-1.1l0.6-0.8c0.2,0.3,0.6,0.5,1,0.7s0.9,0.3,1.4,0.3c0.6,0,1-0.1,1.3-0.3c0.3-0.2,0.4-0.5,0.4-0.9
				c0-0.3-0.2-0.6-0.5-0.8s-0.9-0.4-1.8-0.6c-0.7-0.2-1.3-0.4-1.7-0.7c-0.4-0.3-0.6-0.8-0.6-1.3c0-0.6,0.2-1.1,0.7-1.5
				s1.1-0.6,2-0.6c1.1,0,2,0.3,2.7,1l-0.5,0.8c-0.2-0.3-0.5-0.5-0.9-0.7s-0.8-0.3-1.3-0.3s-0.9,0.1-1.2,0.3
				c-0.3,0.2-0.4,0.5-0.4,0.8s0.2,0.5,0.5,0.7s0.9,0.3,1.8,0.5c0.7,0.2,1.3,0.4,1.7,0.8c0.4,0.3,0.6,0.8,0.6,1.4
				c0,0.7-0.3,1.2-0.8,1.6C148.8,316.1,148.1,316.3,147.3,316.3z"/>
			<path class="st3" d="M149,293.1h75v34.3h-75V293.1z"/>
			<path class="st2" d="M162.8,314.2c0.2,0.3,0.5,0.6,0.9,0.8s0.8,0.3,1.3,0.3c0.7,0,1.3-0.3,1.7-0.8s0.6-1.2,0.6-2s-0.2-1.5-0.6-2
				c-0.4-0.5-1-0.8-1.7-0.8c-0.4,0-0.9,0.1-1.3,0.3c-0.4,0.2-0.7,0.5-0.9,0.8V314.2z M161.7,316.1v-10h1.1v3.8
				c0.6-0.8,1.4-1.3,2.4-1.3s1.8,0.3,2.3,1c0.6,0.7,0.9,1.6,0.9,2.8c0,1.2-0.3,2.1-0.9,2.8s-1.4,1-2.3,1c-0.5,0-1-0.1-1.4-0.4
				c-0.4-0.2-0.8-0.5-1-0.9v1.1h-1.1V316.1z M173.4,316.3c-1.1,0-2-0.4-2.7-1.1s-1-1.6-1-2.8c0-1.1,0.3-2,1-2.7s1.5-1.1,2.6-1.1
				c1,0,1.9,0.4,2.5,1.1s1,1.7,1,2.8v0.3h-5.9c0,0.7,0.3,1.3,0.8,1.8s1.1,0.7,1.8,0.7c0.9,0,1.6-0.3,2.2-0.9l0.5,0.7
				C175.6,316,174.6,316.3,173.4,316.3z M175.7,312.1c0-0.7-0.2-1.2-0.7-1.7c-0.4-0.5-1-0.7-1.7-0.7s-1.2,0.2-1.7,0.7
				c-0.4,0.5-0.7,1-0.7,1.7H175.7z M181.6,316.3c-1.1,0-1.9-0.4-2.6-1.1c-0.7-0.7-1-1.6-1-2.7s0.3-2,1-2.7s1.5-1.1,2.6-1.1
				s2,0.4,2.7,1.2l-0.8,0.7c-0.5-0.6-1.1-1-1.8-1s-1.3,0.3-1.8,0.8s-0.7,1.2-0.7,2s0.2,1.5,0.7,2s1.1,0.8,1.8,0.8
				c0.8,0,1.4-0.3,1.8-0.9l0.8,0.7C183.6,315.9,182.7,316.3,181.6,316.3z M190.2,316.1v-0.8c-0.6,0.7-1.4,1-2.4,1
				c-0.7,0-1.3-0.2-1.8-0.7s-0.7-1-0.7-1.7s0.2-1.3,0.7-1.7c0.5-0.4,1.1-0.7,1.8-0.7c1,0,1.8,0.3,2.4,1v-1.3c0-0.5-0.2-0.9-0.5-1.1
				c-0.3-0.3-0.8-0.4-1.3-0.4c-0.9,0-1.6,0.3-2.2,1l-0.5-0.8c0.8-0.8,1.7-1.2,2.9-1.2c0.9,0,1.6,0.2,2.1,0.6s0.7,1,0.7,1.8v5
				L190.2,316.1L190.2,316.1z M188.2,315.5c0.9,0,1.6-0.3,2-0.9v-1.3c-0.4-0.6-1.1-0.9-2-0.9c-0.5,0-1,0.2-1.3,0.5s-0.5,0.7-0.5,1.1
				c0,0.5,0.2,0.8,0.5,1.1C187.2,315.4,187.7,315.5,188.2,315.5z M202.1,316.1v-4.9c0-1-0.4-1.5-1.3-1.5c-0.4,0-0.7,0.1-1.1,0.3
				c-0.4,0.2-0.6,0.5-0.8,0.8v5.3h-1.1v-4.9c0-1-0.4-1.5-1.3-1.5c-0.4,0-0.7,0.1-1.1,0.3c-0.3,0.2-0.6,0.5-0.8,0.8v5.3h-1.1v-7.2
				h1.1v1.1c0.2-0.3,0.5-0.6,1-0.8c0.5-0.3,0.9-0.4,1.4-0.4c0.6,0,1,0.1,1.3,0.4s0.5,0.6,0.6,1c0.2-0.4,0.6-0.7,1.1-1
				s0.9-0.4,1.4-0.4c1.4,0,2,0.7,2,2.2v5.2L202.1,316.1L202.1,316.1z M208.5,316.3c-1.1,0-2-0.4-2.7-1.1s-1-1.6-1-2.8
				c0-1.1,0.3-2,1-2.7s1.5-1.1,2.6-1.1c1,0,1.9,0.4,2.5,1.1s1,1.7,1,2.8v0.3H206c0,0.7,0.3,1.3,0.8,1.8c0.5,0.5,1.1,0.7,1.8,0.7
				c0.9,0,1.6-0.3,2.2-0.9l0.5,0.7C210.6,316,209.7,316.3,208.5,316.3z M210.7,312.1c0-0.7-0.2-1.2-0.7-1.7c-0.4-0.5-1-0.7-1.7-0.7
				s-1.2,0.2-1.7,0.7c-0.4,0.5-0.7,1-0.7,1.7H210.7z"/>
			<path class="st3" d="M211.3,293.1h62v34.3h-62V293.1z"/>
			<path class="st2" d="M234.9,316.3c-1.1,0-1.6-0.6-1.6-1.7v-4.7h-1.2v-1h1.2v-2h1.1v2h1.5v1h-1.5v4.5c0,0.3,0.1,0.5,0.2,0.7
				s0.3,0.2,0.6,0.2c0.3,0,0.6-0.1,0.8-0.3l0.3,0.8C236,316.2,235.5,316.3,234.9,316.3z M242.3,316.1v-4.8c0-0.5-0.1-1-0.4-1.2
				c-0.2-0.3-0.7-0.4-1.2-0.4c-0.4,0-0.8,0.1-1.2,0.3c-0.4,0.2-0.7,0.5-1,0.8v5.3h-1.1v-10h1.1v3.8c0.3-0.4,0.7-0.7,1.2-0.9
				c0.5-0.2,0.9-0.3,1.4-0.3c1.5,0,2.3,0.8,2.3,2.3v5.1L242.3,316.1L242.3,316.1z M248.7,316.3c-1.1,0-2-0.4-2.7-1.1s-1-1.6-1-2.8
				c0-1.1,0.3-2,1-2.7s1.5-1.1,2.6-1.1c1,0,1.9,0.4,2.5,1.1s1,1.7,1,2.8v0.3h-5.9c0,0.7,0.3,1.3,0.8,1.8s1.1,0.7,1.8,0.7
				c0.9,0,1.6-0.3,2.2-0.9l0.5,0.7C250.9,316,249.9,316.3,248.7,316.3z M251,312.1c0-0.7-0.2-1.2-0.7-1.7c-0.4-0.5-1-0.7-1.7-0.7
				s-1.2,0.2-1.7,0.7c-0.4,0.5-0.7,1-0.7,1.7H251z"/>
			<path class="st3" d="M261.6,293.1h75v34.3h-75V293.1z"/>
			<path class="st2" d="M278.4,316.1v-10h1.1v10H278.4z M286.2,316.1v-0.8c-0.6,0.7-1.4,1-2.4,1c-0.7,0-1.3-0.2-1.8-0.7
				s-0.7-1-0.7-1.7s0.2-1.3,0.7-1.7c0.5-0.4,1.1-0.7,1.8-0.7c1,0,1.8,0.3,2.4,1v-1.3c0-0.5-0.2-0.9-0.5-1.1
				c-0.3-0.3-0.8-0.4-1.3-0.4c-0.9,0-1.6,0.3-2.2,1l-0.5-0.8c0.8-0.8,1.7-1.2,2.9-1.2c0.9,0,1.6,0.2,2.1,0.6s0.7,1,0.7,1.8v5
				L286.2,316.1L286.2,316.1z M284.2,315.5c0.9,0,1.6-0.3,2-0.9v-1.3c-0.4-0.6-1.1-0.9-2-0.9c-0.5,0-1,0.2-1.3,0.5s-0.5,0.7-0.5,1.1
				c0,0.5,0.2,0.8,0.5,1.1C283.3,315.4,283.7,315.5,284.2,315.5z M289.4,316.1v-7.2h1.1v1.2c0.7-0.9,1.5-1.3,2.4-1.3v1.2h-0.5
				c-0.3,0-0.7,0.1-1.1,0.4c-0.4,0.2-0.7,0.5-0.8,0.8v5.1h-1.1V316.1z M297.2,319.1c-0.6,0-1.2-0.1-1.6-0.2s-0.9-0.4-1.3-0.8
				l0.6-0.8c0.3,0.4,0.6,0.6,1,0.8c0.4,0.2,0.8,0.2,1.3,0.2c0.7,0,1.3-0.2,1.7-0.6c0.4-0.4,0.6-0.9,0.6-1.6v-1
				c-0.3,0.4-0.6,0.7-1,0.9c-0.4,0.2-0.9,0.4-1.4,0.4c-1,0-1.8-0.3-2.4-1s-0.9-1.6-0.9-2.7c0-1.2,0.3-2.1,0.9-2.8
				c0.6-0.7,1.4-1,2.3-1c1,0,1.8,0.4,2.4,1.3v-1.1h1.1v7c0,1-0.3,1.8-0.9,2.3C299.1,318.8,298.3,319.1,297.2,319.1z M297.3,315.2
				c0.4,0,0.8-0.1,1.2-0.3s0.7-0.5,0.9-0.8v-3.2c-0.2-0.4-0.5-0.6-1-0.8c-0.4-0.2-0.8-0.3-1.2-0.3c-0.7,0-1.3,0.3-1.7,0.8
				c-0.4,0.5-0.6,1.2-0.6,2s0.2,1.5,0.6,2C296.1,315,296.6,315.2,297.3,315.2z M305.9,316.3c-1.1,0-2-0.4-2.7-1.1s-1-1.6-1-2.8
				c0-1.1,0.3-2,1-2.7s1.5-1.1,2.6-1.1c1,0,1.9,0.4,2.5,1.1s1,1.7,1,2.8v0.3h-5.9c0,0.7,0.3,1.3,0.8,1.8s1.1,0.7,1.8,0.7
				c0.9,0,1.6-0.3,2.2-0.9l0.5,0.7C308.1,316,307.1,316.3,305.9,316.3z M308.2,312.1c0-0.7-0.2-1.2-0.7-1.7c-0.4-0.5-1-0.7-1.7-0.7
				s-1.2,0.2-1.7,0.7c-0.4,0.5-0.7,1-0.7,1.7H308.2z M313.2,316.3c-1.2,0-2.2-0.4-2.9-1.1l0.6-0.8c0.2,0.3,0.6,0.5,1,0.7
				s0.9,0.3,1.4,0.3c0.6,0,1-0.1,1.3-0.3c0.3-0.2,0.4-0.5,0.4-0.9c0-0.3-0.2-0.6-0.5-0.8s-0.9-0.4-1.8-0.6c-0.7-0.2-1.3-0.4-1.7-0.7
				c-0.4-0.3-0.6-0.8-0.6-1.3c0-0.6,0.2-1.1,0.7-1.5s1.1-0.6,2-0.6c1.1,0,2,0.3,2.7,1l-0.5,0.8c-0.2-0.3-0.5-0.5-0.9-0.7
				s-0.8-0.3-1.3-0.3s-0.9,0.1-1.2,0.3c-0.3,0.2-0.4,0.5-0.4,0.8s0.2,0.5,0.5,0.7s0.9,0.3,1.8,0.5c0.7,0.2,1.3,0.4,1.7,0.8
				c0.4,0.3,0.6,0.8,0.6,1.4c0,0.7-0.3,1.2-0.8,1.6C314.8,316.1,314.1,316.3,313.2,316.3z M319.6,316.3c-1.1,0-1.6-0.6-1.6-1.7v-4.7
				h-1.2v-1h1.2v-2h1.1v2h1.5v1h-1.5v4.5c0,0.3,0.1,0.5,0.2,0.7s0.3,0.2,0.6,0.2c0.3,0,0.6-0.1,0.8-0.3l0.3,0.8
				C320.6,316.2,320.2,316.3,319.6,316.3z"/>
			<path class="st3" d="M323.9,293.1h62v34.3h-62V293.1z"/>
			<path class="st2" d="M343.9,316.3c-1.1,0-1.6-0.6-1.6-1.7v-4.7h-1.2v-1h1.2v-2h1.1v2h1.5v1h-1.5v4.5c0,0.3,0.1,0.5,0.2,0.7
				s0.3,0.2,0.6,0.2c0.3,0,0.6-0.1,0.8-0.3l0.3,0.8C345,316.2,344.5,316.3,343.9,316.3z M349.7,316.3c-1.1,0-2-0.4-2.7-1.1
				s-1-1.6-1-2.8c0-1.1,0.3-2,1-2.7s1.5-1.1,2.6-1.1c1,0,1.9,0.4,2.5,1.1s1,1.7,1,2.8v0.3h-5.9c0,0.7,0.3,1.3,0.8,1.8
				s1.1,0.7,1.8,0.7c0.9,0,1.6-0.3,2.2-0.9l0.5,0.7C351.8,316,350.8,316.3,349.7,316.3z M351.9,312.1c0-0.7-0.2-1.2-0.7-1.7
				c-0.4-0.5-1-0.7-1.7-0.7s-1.2,0.2-1.7,0.7c-0.4,0.5-0.7,1-0.7,1.7H351.9z M357.8,316.3c-1.1,0-1.9-0.4-2.6-1.1s-1-1.6-1-2.7
				s0.3-2,1-2.7s1.5-1.1,2.6-1.1s2,0.4,2.7,1.2l-0.8,0.7c-0.5-0.6-1.1-1-1.8-1c-0.7,0-1.3,0.3-1.8,0.8s-0.7,1.2-0.7,2s0.2,1.5,0.7,2
				s1.1,0.8,1.8,0.8c0.8,0,1.4-0.3,1.8-0.9l0.8,0.7C359.8,315.9,359,316.3,357.8,316.3z M366.8,316.1v-4.8c0-0.5-0.1-1-0.4-1.2
				c-0.2-0.3-0.7-0.4-1.2-0.4c-0.4,0-0.8,0.1-1.2,0.3c-0.4,0.2-0.7,0.5-1,0.8v5.3h-1.1v-10h1.1v3.8c0.3-0.4,0.7-0.7,1.2-0.9
				c0.5-0.2,0.9-0.3,1.4-0.3c1.5,0,2.3,0.8,2.3,2.3v5.1L366.8,316.1L366.8,316.1z"/>
			<path class="st3" d="M381.1,293.1h62v34.3h-62V293.1z"/>
			<path class="st2" d="M408.8,316.3c-0.2,0-0.4-0.1-0.6-0.2c-0.2-0.2-0.2-0.4-0.2-0.6s0.1-0.4,0.2-0.6c0.2-0.2,0.3-0.2,0.6-0.2
				s0.4,0.1,0.6,0.2c0.2,0.2,0.2,0.3,0.2,0.6c0,0.2-0.1,0.4-0.2,0.6C409.2,316.2,409,316.3,408.8,316.3z M412.1,316.3
				c-0.2,0-0.4-0.1-0.6-0.2c-0.2-0.2-0.2-0.4-0.2-0.6s0.1-0.4,0.2-0.6c0.2-0.2,0.3-0.2,0.6-0.2c0.2,0,0.4,0.1,0.6,0.2
				c0.2,0.2,0.2,0.3,0.2,0.6c0,0.2-0.1,0.4-0.2,0.6C412.6,316.2,412.4,316.3,412.1,316.3z M415.5,316.3c-0.2,0-0.4-0.1-0.6-0.2
				c-0.2-0.2-0.2-0.4-0.2-0.6s0.1-0.4,0.2-0.6c0.2-0.2,0.3-0.2,0.6-0.2c0.2,0,0.4,0.1,0.6,0.2c0.2,0.2,0.2,0.3,0.2,0.6
				c0,0.2-0.1,0.4-0.2,0.6C415.9,316.2,415.7,316.3,415.5,316.3z"/>
			<path class="st3" d="M74.8,295.4v-17.7"/>
			<path class="st1" d="M74.8,295.4v-14.2"/>
			<path class="st5" d="M74.8,281.1l1.1,1.1l-1.1-3.1l-1.1,3.1L74.8,281.1z"/>
			<path class="st3" d="M130.7,295.4v-17.7"/>
			<path class="st1" d="M130.7,295.4v-14.2"/>
			<path class="st5" d="M130.7,281.1l1.1,1.1l-1.1-3.1l-1.1,3.1L130.7,281.1z"/>
			<path class="st3" d="M186.5,295.4v-17.7"/>
			<path class="st1" d="M186.5,295.4v-14.2"/>
			<path class="st5" d="M186.5,281.1l1.1,1.1l-1.1-3.1l-1.1,3.1L186.5,281.1z"/>
			<path class="st3" d="M242.3,295.4v-17.7"/>
			<path class="st1" d="M242.3,295.4v-14.2"/>
			<path class="st5" d="M242.3,281.1l1.1,1.1l-1.1-3.1l-1.1,3.1L242.3,281.1z"/>
			<path class="st3" d="M298.1,295.4v-17.7"/>
			<path class="st1" d="M298.1,295.4v-14.2"/>
			<path class="st5" d="M298.1,281.1l1.1,1.1l-1.1-3.1l-1.1,3.2L298.1,281.1z"/>
			<path class="st3" d="M353.9,295.4v-17.7"/>
			<path class="st1" d="M353.9,295.4v-14.2"/>
			<path class="st5" d="M353.9,281.1l1.1,1.1l-1.1-3.1l-1.1,3.1L353.9,281.1z"/>
			<path class="st3" d="M411.1,296.1V277"/>
			<path class="st1" d="M411.1,296.1v-15.6"/>
			<path class="st5" d="M411.1,280.4l1.1,1.1l-1.1-3.1l-1.1,3.1L411.1,280.4z"/>
			<path class="st3" d="M19,296.1V277"/>
			<path class="st1" d="M19,296.1v-15.6"/>
			<path class="st5" d="M19,280.4l1.1,1.1l-1.1-3.1l-1.1,3.1L19,280.4z"/>
			<path class="st3" d="M428.2,250.2l29.1,0.1"/>
			<path class="st1" d="M428.2,250.2l25.7,0.1"/>
			<path class="st5" d="M453.9,250.3l-1.1,1.1l3.1-1.1l-3.1-1.1L453.9,250.3z"/>
			<path class="st7" d="M603.5,12.3L603.5,12.3c0-5.8,4.7-10.5,10.5-10.5h92.2c2.8,0,5.5,1.1,7.4,3.1s3.1,4.6,3.1,7.4v42
				c0,5.8-4.7,10.5-10.5,10.5H614c-5.8,0-10.5-4.7-10.5-10.5V12.3z"/>
			<path class="st2" d="M619.1,17c-0.9,0-1.7-0.3-2.2-0.8c-0.6-0.6-0.9-1.3-0.9-2.2c0-0.9,0.3-1.6,0.8-2.2c0.6-0.6,1.3-0.9,2.2-0.9
				s1.5,0.3,2.1,0.9c0.5,0.6,0.8,1.3,0.8,2.3v0.3h-4.3c0,0.4,0.2,0.7,0.5,1s0.7,0.4,1.2,0.4c0.2,0,0.5-0.1,0.8-0.2s0.5-0.2,0.8-0.4
				l0.7,1c-0.3,0.3-0.7,0.5-1.1,0.6C620,16.9,619.5,17,619.1,17z M620.4,13.4c0-0.4-0.2-0.7-0.4-0.9c-0.3-0.2-0.6-0.4-1-0.4
				s-0.7,0.1-1,0.4c-0.2,0.2-0.4,0.5-0.4,0.9H620.4z M626.6,16.9l-1.3-2l-1.3,2h-1.7l2-3l-1.9-2.8h1.7l1.2,1.8l1.2-1.8h1.7l-2,2.8
				l2.1,3H626.6z M632.3,17c-0.7,0-1.3-0.3-1.8-0.9v3H629v-8h1.5v0.7c0.5-0.6,1.1-0.9,1.8-0.9c0.8,0,1.4,0.3,1.9,0.8
				c0.5,0.5,0.7,1.3,0.7,2.2c0,0.9-0.2,1.7-0.7,2.2C633.7,16.7,633.1,17,632.3,17z M631.9,15.6c0.4,0,0.8-0.2,1-0.5
				c0.3-0.3,0.4-0.7,0.4-1.2s-0.1-0.9-0.4-1.2c-0.3-0.3-0.6-0.5-1-0.5c-0.2,0-0.5,0.1-0.8,0.2s-0.4,0.3-0.6,0.5v2
				c0.1,0.2,0.3,0.3,0.6,0.5S631.6,15.6,631.9,15.6z M639.5,16.9v-0.6c-0.4,0.5-1,0.7-1.8,0.7c-0.6,0-1-0.2-1.4-0.5
				c-0.4-0.4-0.6-0.8-0.6-1.4s0.2-1,0.5-1.3c0.4-0.3,0.9-0.5,1.5-0.5c0.8,0,1.4,0.2,1.8,0.7v-0.8c0-0.3-0.1-0.5-0.3-0.7
				s-0.5-0.3-0.9-0.3c-0.6,0-1.2,0.2-1.7,0.7l-0.6-1c0.7-0.6,1.5-0.9,2.5-0.9c0.8,0,1.4,0.2,1.9,0.6c0.4,0.4,0.7,0.9,0.7,1.6V17
				h-1.6V16.9z M638.3,16c0.6,0,1-0.2,1.2-0.5v-0.7c-0.2-0.3-0.7-0.5-1.2-0.5c-0.3,0-0.6,0.1-0.8,0.2s-0.3,0.4-0.3,0.6
				c0,0.3,0.1,0.5,0.3,0.6C637.7,15.9,638,16,638.3,16z M646.5,16.9v-3.5c0-0.7-0.4-1.1-1.1-1.1c-0.6,0-1,0.2-1.3,0.7v3.9h-1.5v-5.8
				h1.5v0.8c0.2-0.2,0.5-0.4,0.8-0.6s0.8-0.3,1.2-0.3c0.6,0,1.1,0.2,1.4,0.5c0.3,0.3,0.5,0.8,0.5,1.3v4.1H646.5z M653.5,16.9v-0.8
				c-0.5,0.6-1.1,0.9-1.8,0.9c-0.8,0-1.4-0.3-1.9-0.8c-0.5-0.6-0.7-1.3-0.7-2.2c0-0.9,0.2-1.7,0.7-2.2c0.5-0.6,1.1-0.8,1.9-0.8
				c0.7,0,1.3,0.3,1.8,0.9v-3h1.5v8H653.5z M652.2,15.6c0.2,0,0.5-0.1,0.8-0.2c0.2-0.1,0.4-0.3,0.6-0.5v-2c-0.1-0.2-0.3-0.4-0.6-0.5
				c-0.2-0.1-0.5-0.2-0.8-0.2c-0.4,0-0.8,0.2-1.1,0.5s-0.4,0.7-0.4,1.2s0.1,0.9,0.4,1.2C651.4,15.5,651.7,15.6,652.2,15.6z
				 M659.3,17c-0.9,0-1.7-0.3-2.2-0.8c-0.6-0.6-0.9-1.3-0.9-2.2c0-0.9,0.3-1.6,0.8-2.2c0.6-0.6,1.3-0.9,2.2-0.9s1.5,0.3,2.1,0.9
				c0.5,0.6,0.8,1.3,0.8,2.3v0.3h-4.3c0,0.4,0.2,0.7,0.5,1s0.7,0.4,1.2,0.4c0.2,0,0.5-0.1,0.8-0.2s0.5-0.2,0.8-0.4l0.7,1
				c-0.3,0.3-0.7,0.5-1.1,0.6C660.1,16.9,659.7,17,659.3,17z M660.6,13.4c0-0.4-0.2-0.7-0.4-0.9c-0.3-0.2-0.6-0.4-1-0.4
				s-0.7,0.1-1,0.4c-0.2,0.2-0.4,0.5-0.4,0.9H660.6z M667.1,16.9v-0.8c-0.5,0.6-1.1,0.9-1.8,0.9c-0.8,0-1.4-0.3-1.9-0.8
				c-0.5-0.6-0.7-1.3-0.7-2.2c0-0.9,0.2-1.7,0.7-2.2c0.5-0.6,1.1-0.8,1.9-0.8c0.7,0,1.3,0.3,1.8,0.9v-3h1.5v8H667.1z M665.8,15.6
				c0.3,0,0.5-0.1,0.8-0.2s0.4-0.3,0.6-0.5v-2c-0.1-0.2-0.3-0.4-0.6-0.5c-0.2-0.1-0.5-0.2-0.8-0.2c-0.4,0-0.8,0.2-1.1,0.5
				s-0.4,0.7-0.4,1.2s0.1,0.9,0.4,1.2C665,15.5,665.4,15.6,665.8,15.6z"/>
			<path class="st2" d="M674.8,19.3c-0.5-0.8-1-1.6-1.2-2.5c-0.3-0.9-0.4-1.9-0.4-2.8c0-1,0.1-1.9,0.4-2.8s0.7-1.7,1.2-2.5l0.5,0.4
				c-0.5,1-0.8,1.8-1,2.5S674,13.1,674,14s0.1,1.7,0.3,2.4c0.2,0.7,0.5,1.6,1,2.5L674.8,19.3z M679.2,17c-0.9,0-1.7-0.4-2.2-1.1
				c-0.6-0.8-0.8-1.8-0.8-3s0.3-2.2,0.8-3c0.6-0.8,1.3-1.1,2.2-1.1c0.6,0,1.2,0.2,1.6,0.5c0.5,0.4,0.8,0.8,1.1,1.5
				c0.3,0.7,0.4,1.3,0.4,2.1c0,0.8-0.1,1.5-0.4,2.1c-0.2,0.6-0.6,1.1-1.1,1.5C680.4,16.8,679.8,17,679.2,17z M679.2,16.1
				c0.6,0,1.1-0.3,1.5-0.9s0.5-1.4,0.5-2.4s-0.2-1.8-0.5-2.4c-0.4-0.6-0.9-0.9-1.5-0.9s-1.1,0.3-1.5,0.9c-0.4,0.6-0.5,1.4-0.5,2.4
				s0.2,1.8,0.5,2.4S678.5,16.1,679.2,16.1z M684.2,17c-0.2,0-0.3-0.1-0.5-0.2c-0.1-0.1-0.2-0.3-0.2-0.5s0.1-0.3,0.2-0.5
				c0.1-0.1,0.3-0.2,0.5-0.2s0.3,0.1,0.5,0.2c0.1,0.1,0.2,0.3,0.2,0.5s-0.1,0.3-0.2,0.5C684.6,16.9,684.4,17,684.2,17z M689.1,17
				c-0.9,0-1.5-0.2-2.1-0.6c-0.5-0.4-0.8-0.9-0.8-1.6c0-0.5,0.2-0.9,0.5-1.2c0.3-0.4,0.8-0.7,1.4-0.8c-0.5-0.2-1-0.4-1.3-0.7
				c-0.3-0.3-0.5-0.7-0.5-1.2c0-0.6,0.3-1.1,0.8-1.5s1.2-0.6,2-0.6s1.5,0.2,2,0.6c0.5,0.4,0.8,0.9,0.8,1.5c0,0.5-0.2,0.9-0.5,1.2
				s-0.8,0.6-1.3,0.7c0.6,0.2,1,0.4,1.4,0.8c0.3,0.4,0.5,0.8,0.5,1.3c0,0.6-0.3,1.2-0.8,1.6C690.6,16.8,689.9,17,689.1,17z
				 M689.1,12.3c1.2-0.2,1.8-0.7,1.8-1.4c0-0.4-0.2-0.7-0.5-0.9s-0.7-0.4-1.3-0.4c-0.5,0-0.9,0.1-1.2,0.4c-0.3,0.2-0.5,0.6-0.5,0.9
				C687.4,11.6,687.9,12.1,689.1,12.3z M689.1,16.1c0.5,0,1-0.1,1.3-0.4c0.4-0.3,0.5-0.6,0.5-1s-0.2-0.7-0.5-1
				c-0.4-0.3-0.8-0.5-1.3-0.5c-0.5,0.1-0.9,0.2-1.3,0.5c-0.4,0.3-0.5,0.6-0.5,1s0.2,0.8,0.5,1C688.1,16,688.6,16.1,689.1,16.1z
				 M692.8,18.8c0.5-0.9,0.8-1.8,1-2.5c0.2-0.8,0.3-1.6,0.3-2.4s-0.1-1.6-0.3-2.3c-0.2-0.7-0.5-1.6-1-2.6l0.5-0.4
				c0.6,0.8,1,1.6,1.3,2.5s0.4,1.8,0.4,2.8s-0.1,1.9-0.4,2.8c-0.3,0.9-0.7,1.7-1.3,2.5L692.8,18.8z"/>
			<path class="st2" d="M617.4,29.3c0.2,0.3,0.4,0.5,0.7,0.7s0.7,0.3,1,0.3c0.6,0,1-0.2,1.4-0.6c0.3-0.4,0.5-1,0.5-1.6
				c0-0.7-0.2-1.2-0.5-1.6s-0.8-0.6-1.4-0.6c-0.4,0-0.7,0.1-1,0.3c-0.3,0.2-0.6,0.4-0.7,0.7V29.3z M616.5,30.9v-8h0.9V26
				c0.5-0.7,1.2-1,2-1s1.4,0.3,1.9,0.8c0.5,0.6,0.7,1.3,0.7,2.2c0,0.9-0.2,1.7-0.7,2.2s-1.1,0.8-1.9,0.8c-0.4,0-0.8-0.1-1.1-0.3
				s-0.6-0.4-0.8-0.7v0.9H616.5z M626,31c-0.9,0-1.6-0.3-2.1-0.8c-0.5-0.6-0.8-1.3-0.8-2.2c0-0.9,0.3-1.6,0.8-2.2
				c0.6-0.6,1.2-0.9,2-0.9s1.5,0.3,2,0.9s0.8,1.3,0.8,2.2v0.3H624c0,0.6,0.2,1.1,0.6,1.5c0.4,0.4,0.9,0.6,1.4,0.6
				c0.7,0,1.3-0.2,1.8-0.7l0.4,0.6C627.7,30.7,627,31,626,31z M627.8,27.6c0-0.5-0.2-1-0.5-1.4s-0.8-0.6-1.4-0.6
				c-0.5,0-1,0.2-1.3,0.6c-0.4,0.4-0.5,0.8-0.5,1.4H627.8z M632.7,31c-0.8,0-1.5-0.3-2.1-0.9c-0.5-0.6-0.8-1.3-0.8-2.2
				c0-0.9,0.3-1.6,0.8-2.2s1.2-0.9,2.1-0.9c0.9,0,1.6,0.3,2.1,1l-0.6,0.6c-0.4-0.5-0.9-0.8-1.5-0.8s-1.1,0.2-1.5,0.6
				s-0.5,0.9-0.5,1.6s0.2,1.2,0.5,1.6c0.4,0.4,0.9,0.6,1.5,0.6s1.1-0.3,1.5-0.8l0.6,0.6C634.3,30.7,633.6,31,632.7,31z M639.7,30.9
				v-0.7c-0.5,0.5-1.1,0.8-1.9,0.8c-0.6,0-1.1-0.2-1.5-0.5c-0.4-0.4-0.6-0.8-0.6-1.4c0-0.6,0.2-1,0.6-1.4c0.4-0.4,0.9-0.5,1.5-0.5
				c0.8,0,1.5,0.3,1.9,0.8v-1c0-0.4-0.1-0.7-0.4-0.9c-0.3-0.2-0.6-0.3-1-0.3c-0.7,0-1.3,0.3-1.8,0.8l-0.4-0.6c0.6-0.6,1.4-1,2.3-1
				c0.7,0,1.3,0.2,1.6,0.5c0.4,0.3,0.6,0.8,0.6,1.4v4C640.6,30.9,639.7,30.9,639.7,30.9z M638.1,30.4c0.7,0,1.3-0.2,1.6-0.7v-1.1
				c-0.4-0.5-0.9-0.7-1.6-0.7c-0.4,0-0.8,0.1-1,0.4c-0.3,0.2-0.4,0.5-0.4,0.9s0.1,0.7,0.4,0.9C637.3,30.2,637.7,30.4,638.1,30.4z
				 M649.4,30.9V27c0-0.8-0.4-1.2-1.1-1.2c-0.3,0-0.6,0.1-0.9,0.3c-0.3,0.2-0.5,0.4-0.6,0.6v4.2h-0.9V27c0-0.8-0.4-1.2-1.1-1.2
				c-0.3,0-0.6,0.1-0.9,0.3c-0.3,0.2-0.5,0.4-0.7,0.6v4.2h-0.9v-5.8h0.9v0.8c0.1-0.2,0.4-0.4,0.8-0.7c0.4-0.2,0.7-0.3,1.1-0.3
				c0.4,0,0.8,0.1,1,0.3c0.2,0.2,0.4,0.5,0.5,0.8c0.2-0.3,0.5-0.6,0.8-0.8c0.4-0.2,0.7-0.3,1.1-0.3c1.1,0,1.6,0.6,1.6,1.8v4.2H649.4
				z M654.7,31c-0.9,0-1.6-0.3-2.1-0.8c-0.5-0.6-0.8-1.3-0.8-2.2c0-0.9,0.3-1.6,0.8-2.2c0.6-0.6,1.2-0.9,2-0.9s1.5,0.3,2,0.9
				s0.8,1.3,0.8,2.2v0.3h-4.7c0,0.6,0.2,1.1,0.6,1.5c0.4,0.4,0.9,0.6,1.4,0.6c0.7,0,1.3-0.2,1.8-0.7l0.4,0.6
				C656.4,30.7,655.7,31,654.7,31z M656.5,27.6c0-0.5-0.2-1-0.5-1.4s-0.8-0.6-1.4-0.6c-0.5,0-1,0.2-1.3,0.6
				c-0.4,0.4-0.5,0.8-0.5,1.4H656.5z M663.3,33.3c-0.5-0.8-1-1.6-1.2-2.5c-0.3-0.9-0.4-1.9-0.4-2.8c0-1,0.1-1.9,0.4-2.8
				c0.3-0.9,0.7-1.7,1.2-2.5l0.5,0.4c-0.5,1-0.8,1.8-1,2.5s-0.3,1.5-0.3,2.4c0,0.9,0.1,1.7,0.3,2.4s0.5,1.6,1,2.5L663.3,33.3z
				 M667.7,31c-0.9,0-1.7-0.4-2.2-1.1c-0.6-0.8-0.8-1.8-0.8-3s0.3-2.2,0.8-3c0.6-0.8,1.3-1.1,2.2-1.1c0.6,0,1.2,0.2,1.6,0.5
				c0.5,0.4,0.8,0.8,1.1,1.5c0.2,0.6,0.4,1.3,0.4,2.1c0,0.8-0.1,1.5-0.4,2.1c-0.2,0.6-0.6,1.1-1.1,1.5C668.9,30.8,668.3,31,667.7,31
				z M667.7,30.1c0.6,0,1.1-0.3,1.5-0.9c0.4-0.6,0.5-1.4,0.5-2.4c0-1-0.2-1.8-0.5-2.4c-0.4-0.6-0.9-0.9-1.5-0.9s-1.1,0.3-1.5,0.9
				s-0.5,1.4-0.5,2.4c0,1,0.2,1.8,0.5,2.4C666.6,29.8,667.1,30.1,667.7,30.1z M672.8,31c-0.2,0-0.3-0.1-0.5-0.2
				c-0.1-0.1-0.2-0.3-0.2-0.5s0.1-0.3,0.2-0.5c0.1-0.1,0.3-0.2,0.5-0.2s0.3,0.1,0.5,0.2c0.1,0.1,0.2,0.3,0.2,0.5s-0.1,0.3-0.2,0.5
				C673.1,30.9,672.9,31,672.8,31z M676.3,30.9v-6.7l-1.3,1.4l-0.6-0.6l2-2.1h0.9v8H676.3z M678.4,32.8c0.5-0.9,0.8-1.8,1-2.5
				c0.2-0.8,0.3-1.6,0.3-2.4c0-0.8-0.1-1.6-0.3-2.3c-0.2-0.7-0.5-1.6-1-2.6l0.5-0.4c0.6,0.7,1,1.6,1.3,2.5s0.4,1.8,0.4,2.8
				s-0.1,1.9-0.4,2.8c-0.3,0.9-0.7,1.7-1.3,2.5L678.4,32.8z"/>
			<path class="st2" d="M616.9,38.2c-0.2,0-0.3-0.1-0.4-0.2c-0.1-0.1-0.2-0.3-0.2-0.4c0-0.2,0.1-0.3,0.2-0.4
				c0.1-0.1,0.3-0.2,0.4-0.2c0.2,0,0.3,0.1,0.4,0.2c0.1,0.1,0.2,0.3,0.2,0.4c0,0.2-0.1,0.3-0.2,0.4
				C617.2,38.2,617.1,38.2,616.9,38.2z M616.5,44.9v-5.8h0.9v5.8H616.5z M623.1,44.9v-3.8c0-0.5-0.1-0.9-0.4-1
				c-0.2-0.2-0.5-0.3-0.9-0.3c-0.3,0-0.7,0.1-1,0.3s-0.6,0.4-0.7,0.6v4.2h-0.9v-5.8h0.9v0.8c0.2-0.3,0.6-0.5,0.9-0.7
				c0.4-0.2,0.7-0.3,1.1-0.3c1.2,0,1.9,0.6,1.9,1.9v4.1H623.1z M628.4,45c-0.8,0-1.5-0.3-2.1-0.9c-0.5-0.6-0.8-1.3-0.8-2.2
				s0.3-1.6,0.8-2.2c0.5-0.6,1.2-0.9,2.1-0.9c0.9,0,1.6,0.3,2.1,1l-0.6,0.6c-0.4-0.5-0.9-0.8-1.5-0.8s-1.1,0.2-1.5,0.6
				c-0.4,0.4-0.5,0.9-0.5,1.6c0,0.7,0.2,1.2,0.5,1.6c0.4,0.4,0.9,0.6,1.5,0.6s1.1-0.3,1.5-0.8l0.6,0.6C630,44.7,629.3,45,628.4,45z
				 M631.8,44.9v-5.8h0.9V40c0.5-0.7,1.2-1.1,1.9-1.1v0.9h-0.4c-0.3,0-0.6,0.1-0.9,0.3c-0.3,0.2-0.5,0.4-0.7,0.6v4.1L631.8,44.9
				L631.8,44.9z M638.3,45c-0.9,0-1.6-0.3-2.1-0.8c-0.5-0.6-0.8-1.3-0.8-2.2s0.3-1.6,0.8-2.2c0.6-0.6,1.2-0.9,2-0.9s1.5,0.3,2,0.9
				c0.5,0.6,0.8,1.3,0.8,2.2v0.3h-4.7c0,0.6,0.2,1.1,0.6,1.5c0.4,0.4,0.9,0.6,1.4,0.6c0.7,0,1.3-0.2,1.8-0.7l0.4,0.6
				C640,44.7,639.3,45,638.3,45z M640.1,41.6c0-0.5-0.2-1-0.5-1.4s-0.8-0.6-1.4-0.6c-0.5,0-1,0.2-1.3,0.6c-0.4,0.4-0.5,0.8-0.5,1.4
				H640.1z M646.1,44.9v-0.7c-0.5,0.5-1.1,0.8-1.9,0.8c-0.6,0-1.1-0.2-1.5-0.5c-0.4-0.4-0.6-0.8-0.6-1.4c0-0.6,0.2-1,0.6-1.4
				c0.4-0.4,0.9-0.5,1.5-0.5c0.8,0,1.5,0.3,1.9,0.8v-1c0-0.4-0.1-0.7-0.4-0.9c-0.3-0.2-0.6-0.3-1-0.3c-0.7,0-1.3,0.3-1.8,0.8
				l-0.4-0.6c0.6-0.6,1.4-1,2.3-1c0.7,0,1.3,0.2,1.6,0.5c0.4,0.3,0.6,0.8,0.6,1.4v4C647,44.9,646.1,44.9,646.1,44.9z M644.5,44.4
				c0.7,0,1.3-0.2,1.6-0.7v-1.1c-0.4-0.5-0.9-0.7-1.6-0.7c-0.4,0-0.8,0.1-1,0.4c-0.3,0.2-0.4,0.5-0.4,0.9s0.1,0.7,0.4,0.9
				C643.7,44.2,644.1,44.4,644.5,44.4z M650.6,45c-1,0-1.8-0.3-2.3-0.9l0.5-0.7c0.2,0.2,0.5,0.4,0.8,0.6c0.3,0.2,0.7,0.2,1.1,0.2
				c0.4,0,0.8-0.1,1-0.3s0.4-0.4,0.4-0.7s-0.1-0.5-0.4-0.6c-0.2-0.1-0.7-0.3-1.4-0.5c-0.6-0.1-1-0.3-1.4-0.6c-0.3-0.3-0.5-0.6-0.5-1
				c0-0.5,0.2-0.9,0.6-1.2c0.4-0.3,0.9-0.5,1.6-0.5c0.9,0,1.6,0.3,2.1,0.8l-0.4,0.6c-0.2-0.2-0.4-0.4-0.7-0.5s-0.6-0.2-1-0.2
				s-0.7,0.1-1,0.3c-0.2,0.2-0.3,0.4-0.3,0.6c0,0.2,0.1,0.4,0.4,0.5c0.3,0.1,0.7,0.3,1.4,0.4c0.6,0.1,1,0.3,1.3,0.6s0.5,0.6,0.5,1.1
				s-0.2,1-0.6,1.3C651.9,44.8,651.3,45,650.6,45z M657,45c-0.9,0-1.6-0.3-2.1-0.8c-0.5-0.6-0.8-1.3-0.8-2.2s0.3-1.6,0.8-2.2
				c0.6-0.6,1.2-0.9,2-0.9s1.5,0.3,2,0.9c0.5,0.6,0.8,1.3,0.8,2.2v0.3H655c0,0.6,0.2,1.1,0.6,1.5c0.4,0.4,0.9,0.6,1.4,0.6
				c0.7,0,1.3-0.2,1.8-0.7l0.4,0.6C658.7,44.7,657.9,45,657,45z M658.8,41.6c0-0.5-0.2-1-0.5-1.4s-0.8-0.6-1.4-0.6
				c-0.5,0-1,0.2-1.3,0.6c-0.4,0.4-0.5,0.8-0.5,1.4H658.8z M665.3,44.9V44c-0.2,0.3-0.5,0.5-0.8,0.7s-0.7,0.3-1.1,0.3
				c-0.8,0-1.4-0.3-1.9-0.8c-0.5-0.6-0.7-1.3-0.7-2.2s0.2-1.7,0.7-2.2c0.5-0.6,1.1-0.8,1.9-0.8c0.4,0,0.8,0.1,1.1,0.3
				s0.6,0.4,0.9,0.8V37h0.9v8L665.3,44.9L665.3,44.9z M663.6,44.2c0.4,0,0.7-0.1,1-0.3s0.6-0.4,0.7-0.7v-2.6
				c-0.2-0.3-0.4-0.5-0.7-0.7s-0.7-0.3-1-0.3c-0.6,0-1,0.2-1.4,0.6c-0.3,0.4-0.5,0.9-0.5,1.6c0,0.7,0.2,1.2,0.5,1.6
				C662.6,44,663,44.2,663.6,44.2z M672.4,47.3c-0.5-0.8-1-1.6-1.2-2.5c-0.3-0.9-0.4-1.9-0.4-2.8c0-1,0.1-1.9,0.4-2.8
				c0.3-0.9,0.7-1.7,1.2-2.5l0.5,0.4c-0.5,1-0.8,1.8-1,2.5s-0.3,1.5-0.3,2.4s0.1,1.7,0.3,2.4s0.5,1.6,1,2.5L672.4,47.3z M676.9,45
				c-0.9,0-1.7-0.4-2.2-1.1c-0.6-0.8-0.8-1.8-0.8-3s0.3-2.2,0.8-3c0.6-0.8,1.3-1.1,2.2-1.1c0.6,0,1.2,0.2,1.6,0.5
				c0.5,0.4,0.8,0.8,1.1,1.5c0.3,0.6,0.4,1.3,0.4,2.1s-0.1,1.5-0.4,2.1c-0.2,0.6-0.6,1.1-1.1,1.5C678,44.8,677.5,45,676.9,45z
				 M676.9,44.1c0.6,0,1.1-0.3,1.5-0.9c0.4-0.6,0.5-1.4,0.5-2.4s-0.2-1.8-0.5-2.4c-0.4-0.6-0.9-0.9-1.5-0.9s-1.1,0.3-1.5,0.9
				c-0.4,0.6-0.5,1.4-0.5,2.4s0.2,1.8,0.5,2.4S676.2,44.1,676.9,44.1z M681.9,45c-0.2,0-0.3-0.1-0.5-0.2c-0.1-0.1-0.2-0.3-0.2-0.5
				s0.1-0.3,0.2-0.5c0.1-0.1,0.3-0.2,0.5-0.2s0.3,0.1,0.5,0.2c0.1,0.1,0.2,0.3,0.2,0.5s-0.1,0.3-0.2,0.5
				C682.3,44.9,682.1,45,681.9,45z M687,45c-0.9,0-1.7-0.4-2.2-1.1c-0.6-0.8-0.8-1.8-0.8-3s0.3-2.2,0.8-3c0.6-0.8,1.3-1.1,2.2-1.1
				c0.6,0,1.2,0.2,1.6,0.5c0.5,0.4,0.8,0.8,1.1,1.5c0.2,0.6,0.4,1.3,0.4,2.1s-0.1,1.5-0.4,2.1c-0.2,0.6-0.6,1.1-1.1,1.5
				C688.1,44.8,687.6,45,687,45z M687,44.1c0.6,0,1.1-0.3,1.5-0.9c0.4-0.6,0.5-1.4,0.5-2.4s-0.2-1.8-0.5-2.4
				c-0.4-0.6-0.9-0.9-1.5-0.9s-1.1,0.3-1.5,0.9c-0.4,0.6-0.5,1.4-0.5,2.4s0.2,1.8,0.5,2.4S686.3,44.1,687,44.1z M694.2,45
				c-1.2,0-2.2-0.4-2.8-1.3L692,43c0.6,0.7,1.3,1,2.2,1c0.5,0,1-0.2,1.3-0.5s0.5-0.7,0.5-1.2s-0.2-0.9-0.5-1.2s-0.8-0.5-1.3-0.5
				c-0.7,0-1.3,0.2-1.8,0.8l-0.7-0.2v-4.3h4.9v0.9h-3.9v2.8c0.2-0.2,0.4-0.4,0.8-0.5c0.3-0.1,0.7-0.2,1.1-0.2c0.7,0,1.3,0.2,1.8,0.7
				s0.7,1.1,0.7,1.8c0,0.8-0.3,1.4-0.8,1.9S695.1,45,694.2,45z M697.9,46.8c0.5-0.9,0.8-1.8,1-2.5c0.2-0.8,0.3-1.6,0.3-2.4
				c0-0.8-0.1-1.6-0.3-2.3s-0.5-1.6-1-2.6l0.5-0.4c0.6,0.7,1,1.6,1.3,2.5s0.4,1.8,0.4,2.8s-0.1,1.9-0.4,2.8
				c-0.3,0.9-0.7,1.7-1.3,2.5L697.9,46.8z"/>
			<path class="st2" d="M617,59c-0.2,0-0.3-0.1-0.5-0.2c-0.1-0.1-0.2-0.3-0.2-0.5s0.1-0.3,0.2-0.5c0.1-0.1,0.3-0.2,0.5-0.2
				s0.3,0.1,0.5,0.2c0.1,0.1,0.2,0.3,0.2,0.5s-0.1,0.3-0.2,0.5C617.3,58.9,617.2,59,617,59z M619.7,59c-0.2,0-0.3-0.1-0.5-0.2
				c-0.1-0.1-0.2-0.3-0.2-0.5s0.1-0.3,0.2-0.5c0.1-0.1,0.3-0.2,0.5-0.2s0.3,0.1,0.5,0.2c0.1,0.1,0.2,0.3,0.2,0.5s-0.1,0.3-0.2,0.5
				C620.1,58.9,619.9,59,619.7,59z M622.5,59c-0.2,0-0.3-0.1-0.5-0.2c-0.1-0.1-0.2-0.3-0.2-0.5s0.1-0.3,0.2-0.5
				c0.1-0.1,0.3-0.2,0.5-0.2s0.3,0.1,0.5,0.2c0.1,0.1,0.2,0.3,0.2,0.5s-0.1,0.3-0.2,0.5C622.8,58.9,622.7,59,622.5,59z"/>
			<path class="st3" d="M387.6,22.4L387.6,22.4c0-3,2.5-5.5,5.5-5.5h160.1c1.5,0,2.9,0.6,3.9,1.6s1.6,2.4,1.6,3.9v21.9
				c0,3-2.5,5.5-5.5,5.5H393l0,0c-3,0-5.5-2.5-5.5-5.5V22.4H387.6z"/>
			<path class="st8" d="M387.6,22.4L387.6,22.4c0-3,2.5-5.5,5.5-5.5h160.1c1.5,0,2.9,0.6,3.9,1.6s1.6,2.4,1.6,3.9v21.9
				c0,3-2.5,5.5-5.5,5.5H393l0,0c-3,0-5.5-2.5-5.5-5.5V22.4H387.6z"/>
			<path class="st3" d="M42.1,258.2h17.7"/>
			<path class="st1" d="M45.5,258.2h14.2"/>
			<path class="st5" d="M45.5,258.2l1.1-1.1l-3.1,1.1l3.1,1.1L45.5,258.2z"/>
			<path class="st3" d="M97.9,258.2h17.7"/>
			<path class="st1" d="M101.3,258.2h14.2"/>
			<path class="st5" d="M101.3,258.2l1.1-1.1l-3.1,1.1l3.1,1.1L101.3,258.2z"/>
			<path class="st3" d="M153.7,258.2h17.7"/>
			<path class="st1" d="M157.2,258.2h14.2"/>
			<path class="st5" d="M157.2,258.2l1.1-1.1l-3.1,1.1l3.1,1.1L157.2,258.2z"/>
			<path class="st3" d="M209.5,258.2h17.7"/>
			<path class="st1" d="M213,258.2h14.2"/>
			<path class="st5" d="M213,258.2l1.1-1.1l-3.1,1.1l3.1,1.1L213,258.2z"/>
			<path class="st3" d="M265.4,258.2H283"/>
			<path class="st1" d="M268.8,258.2H283"/>
			<path class="st5" d="M268.8,258.2l1.1-1.1l-3.1,1.1l3.1,1.1L268.8,258.2z"/>
			<path class="st3" d="M321.2,258.2h17.7"/>
			<path class="st1" d="M324.6,258.2h14.2"/>
			<path class="st5" d="M324.6,258.2l1.1-1.1l-3.1,1.1l3.1,1.1L324.6,258.2z"/>
			<path class="st3" d="M377,258.2h19"/>
			<path class="st1" d="M380.4,258.2H396"/>
			<path class="st5" d="M380.4,258.2l1.1-1.1l-3.1,1.1l3.1,1.1L380.4,258.2z"/>
			<path class="st9" d="M395.6,221L395.6,221c0-0.8,0.6-1.4,1.4-1.4h30.1c0.4,0,0.7,0.1,1,0.4c0.3,0.3,0.4,0.6,0.4,1v5.6
				c0,0.8-0.6,1.4-1.4,1.4H397c-0.8,0-1.4-0.6-1.4-1.4V221z"/>
			<path class="st1" d="M395.6,221L395.6,221c0-0.8,0.6-1.4,1.4-1.4h30.1c0.4,0,0.7,0.1,1,0.4c0.3,0.3,0.4,0.6,0.4,1v5.6
				c0,0.8-0.6,1.4-1.4,1.4H397c-0.8,0-1.4-0.6-1.4-1.4V221z"/>
			<path class="st10" d="M338.5,221L338.5,221c0-0.8,0.6-1.4,1.4-1.4H370c0.4,0,0.7,0.1,1,0.4c0.3,0.3,0.4,0.6,0.4,1v5.6
				c0,0.8-0.6,1.4-1.4,1.4h-30.1c-0.8,0-1.4-0.6-1.4-1.4V221z"/>
			<path class="st1" d="M338.5,221L338.5,221c0-0.8,0.6-1.4,1.4-1.4H370c0.4,0,0.7,0.1,1,0.4c0.3,0.3,0.4,0.6,0.4,1v5.6
				c0,0.8-0.6,1.4-1.4,1.4h-30.1c-0.8,0-1.4-0.6-1.4-1.4V221z"/>
			<path class="st11" d="M282.6,221L282.6,221c0-0.8,0.6-1.4,1.4-1.4h30.1c0.4,0,0.7,0.1,1,0.4c0.3,0.3,0.4,0.6,0.4,1v5.6
				c0,0.8-0.6,1.4-1.4,1.4H284c-0.8,0-1.4-0.6-1.4-1.4V221z"/>
			<path class="st1" d="M282.6,221L282.6,221c0-0.8,0.6-1.4,1.4-1.4h30.1c0.4,0,0.7,0.1,1,0.4c0.3,0.3,0.4,0.6,0.4,1v5.6
				c0,0.8-0.6,1.4-1.4,1.4H284c-0.8,0-1.4-0.6-1.4-1.4V221z"/>
			<path class="st12" d="M226.8,221L226.8,221c0-0.8,0.6-1.4,1.4-1.4h30.1c0.4,0,0.7,0.1,1,0.4c0.3,0.3,0.4,0.6,0.4,1v5.6
				c0,0.8-0.6,1.4-1.4,1.4h-30.1c-0.8,0-1.4-0.6-1.4-1.4V221z"/>
			<path class="st1" d="M226.8,221L226.8,221c0-0.8,0.6-1.4,1.4-1.4h30.1c0.4,0,0.7,0.1,1,0.4c0.3,0.3,0.4,0.6,0.4,1v5.6
				c0,0.8-0.6,1.4-1.4,1.4h-30.1c-0.8,0-1.4-0.6-1.4-1.4V221z"/>
			<path class="st9" d="M171,221L171,221c0-0.8,0.6-1.4,1.4-1.4h30.1c0.4,0,0.7,0.1,1,0.4c0.3,0.3,0.4,0.6,0.4,1v5.6
				c0,0.8-0.6,1.4-1.4,1.4h-30.1c-0.8,0-1.4-0.6-1.4-1.4V221z"/>
			<path class="st1" d="M171,221L171,221c0-0.8,0.6-1.4,1.4-1.4h30.1c0.4,0,0.7,0.1,1,0.4c0.3,0.3,0.4,0.6,0.4,1v5.6
				c0,0.8-0.6,1.4-1.4,1.4h-30.1c-0.8,0-1.4-0.6-1.4-1.4V221z"/>
			<path class="st13" d="M115.2,221L115.2,221c0-0.8,0.6-1.4,1.4-1.4h30.1c0.4,0,0.7,0.1,1,0.4c0.3,0.3,0.4,0.6,0.4,1v5.6
				c0,0.8-0.6,1.4-1.4,1.4h-30.1c-0.8,0-1.4-0.6-1.4-1.4V221z"/>
			<path class="st1" d="M115.2,221L115.2,221c0-0.8,0.6-1.4,1.4-1.4h30.1c0.4,0,0.7,0.1,1,0.4c0.3,0.3,0.4,0.6,0.4,1v5.6
				c0,0.8-0.6,1.4-1.4,1.4h-30.1c-0.8,0-1.4-0.6-1.4-1.4V221z"/>
			<path class="st10" d="M59.4,221L59.4,221c0-0.8,0.6-1.4,1.4-1.4h30.1c0.4,0,0.7,0.1,1,0.4c0.3,0.3,0.4,0.6,0.4,1v5.6
				c0,0.8-0.6,1.4-1.4,1.4H60.8c-0.8,0-1.4-0.6-1.4-1.4C59.4,226.6,59.4,221,59.4,221z"/>
			<path class="st1" d="M59.4,221L59.4,221c0-0.8,0.6-1.4,1.4-1.4h30.1c0.4,0,0.7,0.1,1,0.4c0.3,0.3,0.4,0.6,0.4,1v5.6
				c0,0.8-0.6,1.4-1.4,1.4H60.8c-0.8,0-1.4-0.6-1.4-1.4C59.4,226.6,59.4,221,59.4,221z"/>
			<path class="st13" d="M3.6,221L3.6,221c0-0.8,0.6-1.4,1.4-1.4h30.1c0.4,0,0.7,0.1,1,0.4c0.3,0.3,0.4,0.6,0.4,1v5.6
				c0,0.8-0.6,1.4-1.4,1.4H5c-0.8,0-1.4-0.6-1.4-1.4V221z"/>
			<path class="st1" d="M3.6,221L3.6,221c0-0.8,0.6-1.4,1.4-1.4h30.1c0.4,0,0.7,0.1,1,0.4c0.3,0.3,0.4,0.6,0.4,1v5.6
				c0,0.8-0.6,1.4-1.4,1.4H5c-0.8,0-1.4-0.6-1.4-1.4V221z"/>
			<path class="st3" d="M20,219.6l178-95.3"/>
			<path class="st1" d="M20,219.6l175-93.7"/>
			<path class="st5" d="M195,125.9l-0.5,1.5l2.2-2.4l-3.3,0.5L195,125.9z"/>
			<path class="st3" d="M75.9,219.6l129.2-90.1"/>
			<path class="st1" d="M75.9,219.6l126.4-88.2"/>
			<path class="st5" d="M202.3,131.4L202,133l1.9-2.7l-3.2,0.8L202.3,131.4z"/>
			<path class="st3" d="M131.7,219.6l82.4-86.3"/>
			<path class="st1" d="M131.7,219.6l80-83.8"/>
			<path class="st5" d="M211.7,135.8v1.6l1.3-3l-2.9,1.5L211.7,135.8z"/>
			<path class="st3" d="M187.5,219.6l31.6-86.3"/>
			<path class="st1" d="M187.5,219.6l30.4-83"/>
			<path class="st5" d="M217.9,136.5l0.7,1.4v-3.3l-2.1,2.5L217.9,136.5z"/>
			<path class="st3" d="M243.3,219.6l-21.2-86.3"/>
			<path class="st1" d="M243.3,219.6l-20.4-82.9"/>
			<path class="st5" d="M222.9,136.6l1.4,0.8l-1.8-2.7l-0.4,3.3L222.9,136.6z"/>
			<path class="st3" d="M299.1,219.6l-72-88.3"/>
			<path class="st1" d="M299.1,219.6L229.2,134"/>
			<path class="st5" d="M229.2,133.9l1.6,0.2l-2.8-1.7l1.1,3.1L229.2,133.9z"/>
			<path class="st3" d="M354.9,219.6l-119.8-90.3"/>
			<path class="st1" d="M354.9,219.6l-117.1-88.2"/>
			<path class="st5" d="M237.8,131.4l1.6-0.2l-3.1-1l1.8,2.8L237.8,131.4z"/>
			<path class="st3" d="M412.1,219.6L241,123.3"/>
			<path class="st1" d="M412.1,219.6L244,125"/>
			<path class="st5" d="M244,125l1.5-0.4l-3.2-0.5l2.1,2.5L244,125z"/>
			<path class="st3" d="M535.3,219.6L512,138.8"/>
			<path class="st1" d="M535.3,219.6L513,142.1"/>
			<path class="st5" d="M513,142.1l1.4,0.8l-1.9-2.7l-0.2,3.3L513,142.1z"/>
			<path class="st3" d="M478.1,219.6l27.9-80.8"/>
			<path class="st1" d="M478.1,219.6l26.8-77.5"/>
			<path class="st5" d="M504.9,142l0.7,1.4l-0.1-3.3l-2.1,2.6L504.9,142z"/>
			<path class="st3" d="M495.3,250.3H513"/>
			<path class="st1" d="M495.3,250.3h14.2"/>
			<path class="st5" d="M509.6,250.3l-1.1,1.1l3.1-1.1l-3.1-1.1L509.6,250.3z"/>
			<path class="st14" d="M518.6,239.4L518.6,239.4c0-3,2.5-5.5,5.5-5.5H546l0,0c1.5,0,2.9,0.6,3.9,1.6s1.6,2.4,1.6,3.9v21.9
				c0,3-2.5,5.5-5.5,5.5h-21.9c-3,0-5.5-2.5-5.5-5.5V239.4z"/>
			<path class="st1" d="M518.6,239.4L518.6,239.4c0-3,2.5-5.5,5.5-5.5H546l0,0c1.5,0,2.9,0.6,3.9,1.6s1.6,2.4,1.6,3.9v21.9
				c0,3-2.5,5.5-5.5,5.5h-21.9c-3,0-5.5-2.5-5.5-5.5V239.4z"/>
			<path class="st14" d="M462.8,239.4L462.8,239.4c0-3,2.5-5.5,5.5-5.5h21.9l0,0c1.5,0,2.9,0.6,3.9,1.6s1.6,2.4,1.6,3.9v21.9
				c0,3-2.5,5.5-5.5,5.5h-21.9c-3,0-5.5-2.5-5.5-5.5V239.4z"/>
			<path class="st1" d="M462.8,239.4L462.8,239.4c0-3,2.5-5.5,5.5-5.5h21.9l0,0c1.5,0,2.9,0.6,3.9,1.6s1.6,2.4,1.6,3.9v21.9
				c0,3-2.5,5.5-5.5,5.5h-21.9c-3,0-5.5-2.5-5.5-5.5V239.4z"/>
			<path class="st3" d="M510.4,302.7h50v17.6h-50V302.7z"/>
			<path class="st2" d="M524.4,316.8c-1.1,0-1.6-0.6-1.6-1.7v-4.8h-1.2v-1h1.2v-2h1.1v2h1.5v1H524v4.5c0,0.3,0.1,0.5,0.2,0.7
				c0.1,0.2,0.3,0.2,0.6,0.2s0.6-0.1,0.8-0.3l0.3,0.8C525.5,316.6,525,316.8,524.4,316.8z M530.2,316.8c-1.1,0-2-0.4-2.7-1.1
				s-1-1.6-1-2.8c0-1.1,0.3-2,1-2.7s1.5-1.1,2.6-1.1c1,0,1.9,0.4,2.5,1.1s1,1.7,1,2.8v0.3h-5.9c0,0.7,0.3,1.3,0.8,1.8
				s1.1,0.7,1.8,0.7c0.9,0,1.6-0.3,2.2-0.9l0.5,0.7C532.3,316.4,531.4,316.8,530.2,316.8z M532.4,312.5c0-0.7-0.2-1.2-0.7-1.7
				c-0.4-0.5-1-0.7-1.7-0.7s-1.2,0.2-1.7,0.7c-0.4,0.5-0.7,1-0.7,1.7H532.4z M538.4,316.8c-1.1,0-1.9-0.4-2.6-1.1
				c-0.7-0.7-1-1.6-1-2.7s0.3-2,1-2.7s1.5-1.1,2.6-1.1s2,0.4,2.7,1.2l-0.8,0.7c-0.5-0.6-1.1-1-1.8-1s-1.3,0.3-1.8,0.8
				s-0.7,1.2-0.7,2s0.2,1.5,0.7,2s1.1,0.8,1.8,0.8c0.8,0,1.4-0.3,1.8-0.9l0.8,0.7C540.4,316.3,539.5,316.8,538.4,316.8z
				 M547.3,316.6v-4.8c0-0.5-0.1-1-0.4-1.2c-0.2-0.3-0.7-0.4-1.2-0.4c-0.4,0-0.8,0.1-1.2,0.3c-0.4,0.2-0.7,0.5-1,0.8v5.3h-1.1v-10
				h1.1v3.8c0.3-0.4,0.7-0.7,1.2-0.9c0.5-0.2,0.9-0.3,1.4-0.3c1.5,0,2.3,0.8,2.3,2.3v5.1L547.3,316.6L547.3,316.6z"/>
			<path class="st3" d="M573.4,301.4h32.9v17.7h-32.9V301.4z"/>
			<path class="st2" d="M586.5,315.5c-0.2,0-0.4-0.1-0.6-0.2c-0.2-0.2-0.2-0.4-0.2-0.6s0.1-0.4,0.2-0.6c0.2-0.2,0.3-0.2,0.6-0.2
				s0.4,0.1,0.6,0.2c0.2,0.2,0.2,0.3,0.2,0.6c0,0.2-0.1,0.4-0.2,0.6C587,315.4,586.8,315.5,586.5,315.5z M589.9,315.5
				c-0.2,0-0.4-0.1-0.6-0.2c-0.2-0.2-0.2-0.4-0.2-0.6s0.1-0.4,0.2-0.6c0.2-0.2,0.3-0.2,0.6-0.2c0.2,0,0.4,0.1,0.6,0.2
				c0.2,0.2,0.2,0.3,0.2,0.6c0,0.2-0.1,0.4-0.2,0.6C590.3,315.4,590.1,315.5,589.9,315.5z M593.3,315.5c-0.2,0-0.4-0.1-0.6-0.2
				c-0.2-0.2-0.2-0.4-0.2-0.6s0.1-0.4,0.2-0.6c0.2-0.2,0.3-0.2,0.6-0.2c0.2,0,0.4,0.1,0.6,0.2c0.2,0.2,0.2,0.3,0.2,0.6
				c0,0.2-0.1,0.4-0.2,0.6C593.7,315.4,593.5,315.5,593.3,315.5z"/>
			<path class="st3" d="M459.3,302.4h38.1v17.7h-38.1L459.3,302.4L459.3,302.4z"/>
			<path class="st2" d="M474.2,316.5c-1.3,0-2.3-0.4-3-1.1s-1.1-1.7-1.1-3v-6.1h1.2v6.1c0,0.9,0.2,1.7,0.7,2.2s1.2,0.8,2.1,0.8
				c0.9,0,1.6-0.3,2.1-0.8s0.7-1.3,0.7-2.2v-6.1h1.2v6.1c0,1.3-0.3,2.3-1,3C476.6,316.1,475.5,316.5,474.2,316.5z M483.6,316.5
				c-1.6,0-2.9-0.5-3.8-1.6l0.8-1c0.4,0.5,0.9,0.8,1.4,1.1c0.6,0.2,1.1,0.4,1.7,0.4c0.7,0,1.3-0.2,1.7-0.5s0.6-0.7,0.6-1.2
				c0-0.8-0.6-1.4-1.9-1.7c-1.5-0.4-2.4-0.7-2.8-0.9c-0.4-0.2-0.7-0.5-0.9-0.9c-0.2-0.3-0.3-0.8-0.3-1.2c0-0.8,0.3-1.5,1-2
				c0.6-0.5,1.5-0.8,2.5-0.8c1.5,0,2.7,0.5,3.6,1.4l-0.8,0.9c-0.7-0.8-1.7-1.2-2.9-1.2c-0.6,0-1.1,0.1-1.5,0.4s-0.6,0.7-0.6,1.2
				c0,0.3,0.2,0.6,0.5,0.9s0.8,0.4,1.4,0.6c1.4,0.4,2.3,0.7,2.8,1c0.4,0.3,0.7,0.6,1,0.9c0.2,0.4,0.3,0.8,0.3,1.3
				c0,0.9-0.3,1.7-1,2.2C485.7,316.2,484.8,316.5,483.6,316.5z"/>
			<path class="st3" d="M478.3,296.2v-19.1"/>
			<path class="st1" d="M478.3,296.2v-15.6"/>
			<path class="st5" d="M478.3,280.5l1.1,1.1l-1.1-3.1l-1.1,3.1L478.3,280.5z"/>
			<path class="st3" d="M534.1,295.9v-19.1"/>
			<path class="st1" d="M534.1,295.9v-15.6"/>
			<path class="st5" d="M534.1,280.3l1.1,1.1l-1.1-3.1l-1.1,3.1L534.1,280.3z"/>
			<path class="st15" d="M518.8,221L518.8,221c0-0.8,0.6-1.4,1.4-1.4h30.1c0.4,0,0.7,0.1,1,0.4c0.3,0.3,0.4,0.6,0.4,1v5.6
				c0,0.8-0.6,1.4-1.4,1.4h-30.1c-0.8,0-1.4-0.6-1.4-1.4V221z"/>
			<path class="st1" d="M518.8,221L518.8,221c0-0.8,0.6-1.4,1.4-1.4h30.1c0.4,0,0.7,0.1,1,0.4c0.3,0.3,0.4,0.6,0.4,1v5.6
				c0,0.8-0.6,1.4-1.4,1.4h-30.1c-0.8,0-1.4-0.6-1.4-1.4V221z"/>
			<path class="st16" d="M461.6,221L461.6,221c0-0.8,0.6-1.4,1.4-1.4h30.1c0.4,0,0.7,0.1,1,0.4c0.3,0.3,0.4,0.6,0.4,1v5.6
				c0,0.8-0.6,1.4-1.4,1.4H463c-0.8,0-1.4-0.6-1.4-1.4V221z"/>
			<path class="st1" d="M461.6,221L461.6,221c0-0.8,0.6-1.4,1.4-1.4h30.1c0.4,0,0.7,0.1,1,0.4c0.3,0.3,0.4,0.6,0.4,1v5.6
				c0,0.8-0.6,1.4-1.4,1.4H463c-0.8,0-1.4-0.6-1.4-1.4V221z"/>
			<path class="st3" d="M506.7,82V60.6"/>
			<path class="st1" d="M506.7,82V64"/>
			<path class="st5" d="M506.7,64l1.1,1.1l-1.1-3.1l-1.1,3.1L506.7,64z"/>
			<path class="st3" d="M551.5,250.3c12.5,0,24.2-30.4,25-51.6s-9.4-33.2-19.3-51.6S538,103.7,538,60.3"/>
			<path class="st1" d="M551.5,250.3c12.5,0,24.2-30.4,25-51.6s-9.4-33.2-19.3-51.6c-4.9-9.2-9.7-20.1-13.3-34
				c-1.8-7-3.3-14.7-4.3-23.5c-0.5-4.4-0.9-9-1.2-13.8c-0.1-2.4-0.2-4.9-0.3-7.5c0-1.3-0.1-2.6-0.1-3.9v-0.6"/>
			<path class="st5" d="M538,63.7l1.1,1.1l-1.1-3.1l-1.1,3.1L538,63.7z"/>
			<path class="st3" d="M567.5,32.6h29.1"/>
			<path class="st1" d="M567.5,32.6h25.6"/>
			<path class="st5" d="M593.1,32.6l-1.1,1.1l3.1-1.1l-3.1-1.1L593.1,32.6z"/>
			<path class="st3" d="M645,78.3l-53,216"/>
			<path class="st1" d="M645,78.3L592.8,291"/>
			<path class="st5" d="M592.8,291l-0.8-1.4l0.4,3.3l1.8-2.7L592.8,291z"/>
			<path class="st10" d="M395.6,27.5L395.6,27.5c0-1.6,1.3-2.9,2.9-2.9h27c0.8,0,1.5,0.3,2.1,0.9s0.9,1.3,0.9,2.1v11.7
				c0,1.6-1.3,2.9-2.9,2.9h-27c-1.6,0-2.9-1.3-2.9-2.9V27.5H395.6z"/>
			<path class="st1" d="M395.6,27.5L395.6,27.5c0-1.6,1.3-2.9,2.9-2.9h27c0.8,0,1.5,0.3,2.1,0.9s0.9,1.3,0.9,2.1v11.7
				c0,1.6-1.3,2.9-2.9,2.9h-27c-1.6,0-2.9-1.3-2.9-2.9V27.5H395.6z"/>
			<path d="M412.8,38.1c-1.2,0-2.2-0.4-3-1.2s-1.2-1.8-1.2-3s0.4-2.2,1.2-3c0.8-0.8,1.8-1.2,3-1.2c1.3,0,2.3,0.5,3,1.6l-0.8,0.5
				c-0.2-0.3-0.5-0.6-0.9-0.8s-0.8-0.3-1.2-0.3c-0.9,0-1.6,0.3-2.2,0.9c-0.6,0.6-0.9,1.4-0.9,2.3c0,0.9,0.3,1.7,0.9,2.3
				s1.3,0.9,2.2,0.9c0.4,0,0.9-0.1,1.2-0.3c0.4-0.2,0.7-0.5,0.9-0.8l0.9,0.5C415,37.6,414,38.1,412.8,38.1z"/>
			<path class="st14" d="M461.6,27.5L461.6,27.5c0-1.6,1.3-2.9,2.9-2.9h27c0.8,0,1.5,0.3,2.1,0.9s0.9,1.3,0.9,2.1v11.7
				c0,1.6-1.3,2.9-2.9,2.9h-27c-1.6,0-2.9-1.3-2.9-2.9L461.6,27.5L461.6,27.5z"/>
			<path class="st1" d="M461.6,27.5L461.6,27.5c0-1.6,1.3-2.9,2.9-2.9h27c0.8,0,1.5,0.3,2.1,0.9s0.9,1.3,0.9,2.1v11.7
				c0,1.6-1.3,2.9-2.9,2.9h-27c-1.6,0-2.9-1.3-2.9-2.9L461.6,27.5L461.6,27.5z"/>
			<path d="M478.7,38.1c-1.2,0-2.2-0.4-3-1.2s-1.2-1.8-1.2-3s0.4-2.2,1.2-3s1.8-1.2,3-1.2c1.3,0,2.3,0.5,3,1.6l-0.8,0.5
				c-0.2-0.3-0.5-0.6-0.9-0.8s-0.8-0.3-1.2-0.3c-0.9,0-1.6,0.3-2.2,0.9c-0.6,0.6-0.9,1.4-0.9,2.3c0,0.9,0.3,1.7,0.9,2.3
				c0.6,0.6,1.3,0.9,2.2,0.9c0.4,0,0.9-0.1,1.2-0.3c0.4-0.2,0.7-0.5,0.9-0.8l0.9,0.5C481,37.6,480,38.1,478.7,38.1z"/>
			<path class="st14" d="M518.8,27.5L518.8,27.5c0-1.6,1.3-2.9,2.9-2.9h27c0.8,0,1.5,0.3,2.1,0.9s0.9,1.3,0.9,2.1v11.7
				c0,1.6-1.3,2.9-2.9,2.9h-27c-1.6,0-2.9-1.3-2.9-2.9L518.8,27.5L518.8,27.5z"/>
			<path class="st1" d="M518.8,27.5L518.8,27.5c0-1.6,1.3-2.9,2.9-2.9h27c0.8,0,1.5,0.3,2.1,0.9s0.9,1.3,0.9,2.1v11.7
				c0,1.6-1.3,2.9-2.9,2.9h-27c-1.6,0-2.9-1.3-2.9-2.9L518.8,27.5L518.8,27.5z"/>
			<path d="M537.5,38v-3.7h-4.7V38h-1v-8h1v3.4h4.7V30h1v8H537.5z"/>
			<path class="st3" d="M219.1,82c0-24.1,80.2-48.2,160.4-48.2"/>
			<path class="st1" d="M219.1,82c0-12.1,20.1-24.1,50.1-33.2c15-4.5,32.6-8.3,51.4-10.9c9.4-1.3,19.1-2.4,29-3.1
				c4.9-0.4,9.9-0.6,14.9-0.8c2.5-0.1,5-0.2,7.5-0.2c1.3,0,2.5,0,3.8-0.1h0.3"/>
			<path class="st5" d="M376.1,33.8l-1.1,1.1l3.1-1.1l-3.1-1.1L376.1,33.8z"/>
		</g>
	</g>
</g>
</svg>
